<svg width="41" height="41" viewBox="0 0 41 41" fill="none" xmlns="http://www.w3.org/2000/svg">
<path d="M37.5833 0H3.41667C1.52969 0 0 1.52969 0 3.41667V36.9465C0 38.8334 1.52969 40.3631 3.41667 40.3631H37.5833C39.4703 40.3631 41 38.8334 41 36.9465V3.41667C41 1.52969 39.4703 0 37.5833 0Z" fill="#FFBF45"/>
<path d="M20.4961 18.9104C24.0977 18.9104 29.1678 24.3561 29.1678 27.7957C29.2077 29.3446 27.9943 30.2722 25.9505 30.2722C23.7361 30.2722 22.2703 29.1582 20.4961 29.1582C18.7037 29.1582 17.2334 30.2722 15.0417 30.2722C13.0406 30.2722 11.7863 29.3455 11.7863 27.7979C11.8244 24.3605 16.8931 18.9104 20.4961 18.9104ZM27.1757 18.3511C27.6463 16.8147 29.1042 15.816 30.4257 16.1267C31.747 16.4374 32.4351 17.934 31.9644 19.4695C31.4938 21.0096 30.0358 22.0083 28.7145 21.6975C27.393 21.3869 26.7083 19.8868 27.1757 18.3511ZM23.3322 17.428C21.9314 17.0673 21.2281 15.2488 21.7667 13.284C22.3053 11.3192 23.8767 10.1284 25.283 10.4493C26.6838 10.8099 27.3871 12.6285 26.8485 14.5933C26.309 16.5182 24.7389 17.792 23.3322 17.428ZM10.5629 16.1276C11.8844 15.8568 13.3423 16.8155 13.8129 18.352C14.2835 19.889 13.5973 21.3864 12.276 21.6971C10.9546 21.9679 9.50247 21.0092 9.02598 19.4727C8.55728 17.934 9.28333 16.4383 10.5629 16.1276ZM17.66 17.428C16.2941 17.7886 14.6823 16.5182 14.1437 14.5933C13.6051 12.6685 14.3082 10.8097 15.7093 10.4493C17.0751 10.0887 18.6869 11.3592 19.2256 13.284C19.7655 15.2089 19.0622 17.0685 17.66 17.428Z" fill="black"/>
</svg>
