<svg width="200" height="200" viewBox="0 0 200 200" fill="none" xmlns="http://www.w3.org/2000/svg">
<g clip-path="url(#clip0_549_879)">
<path d="M59.7722 60.664C59.4853 60.2145 59.066 59.8651 58.5722 59.664C58.1042 59.4459 57.58 59.3788 57.0722 59.472C56.8092 59.5345 56.5612 59.6487 56.3428 59.8081C56.1245 59.9674 55.94 60.1686 55.8002 60.4C55.632 60.679 55.5345 60.9948 55.5162 61.32C55.2777 61.1494 55.0045 61.0333 54.7162 60.98C54.4469 60.9333 54.171 60.9414 53.905 61.004C53.639 61.0665 53.3884 61.1822 53.1682 61.344C52.7626 61.665 52.4663 62.1038 52.3202 62.6C52.1545 63.1001 52.1461 63.639 52.2962 64.144C52.5005 64.7862 52.904 65.3466 53.4482 65.744C54.0453 66.1217 54.7243 66.3508 55.4282 66.412C56.5842 66.548 58.0882 66.692 58.0882 66.692C58.0882 66.692 58.7562 65.492 59.4162 64.52C59.8342 63.9497 60.1086 63.2869 60.2162 62.588C60.2792 61.9156 60.1235 61.2408 59.7722 60.664Z" fill="#E0E0E0"/>
<path d="M144.884 91.864C144.784 91.3457 144.527 90.8708 144.148 90.504C143.792 90.1284 143.328 89.8737 142.82 89.776C142.388 89.7054 141.944 89.7788 141.557 89.9847C141.171 90.1907 140.862 90.5178 140.68 90.916C140.52 90.6693 140.307 90.4615 140.056 90.308C139.823 90.1653 139.563 90.0718 139.293 90.0333C139.023 89.9948 138.747 90.012 138.484 90.084C137.988 90.2311 137.552 90.5306 137.236 90.94C136.899 91.346 136.695 91.846 136.652 92.372C136.606 93.0426 136.777 93.7101 137.14 94.276C137.559 94.8455 138.107 95.3075 138.74 95.624C139.764 96.172 141.116 96.852 141.116 96.852C141.116 96.852 142.18 95.968 143.144 95.316C143.741 94.9364 144.239 94.4193 144.596 93.808C144.898 93.2076 144.999 92.5261 144.884 91.864Z" fill="#E0E0E0"/>
<path d="M109.652 33.748C109.657 33.0697 109.456 32.4057 109.076 31.844C108.724 31.2858 108.209 30.8499 107.6 30.596C107.073 30.3951 106.495 30.3733 105.955 30.5338C105.415 30.6943 104.943 31.0282 104.612 31.484C104.472 31.1316 104.257 30.8147 103.98 30.556C103.721 30.3184 103.418 30.1354 103.087 30.0179C102.757 29.9003 102.406 29.8507 102.056 29.872C101.394 29.9332 100.769 30.2004 100.268 30.636C99.7395 31.0609 99.3542 31.6374 99.1637 32.288C98.9363 33.1218 98.9826 34.0065 99.2957 34.812C99.6769 35.6357 100.249 36.3569 100.964 36.916C102.12 37.868 103.644 39.072 103.644 39.072C103.644 39.072 105.212 38.228 106.596 37.652C107.442 37.3242 108.198 36.7989 108.8 36.12C109.332 35.4418 109.631 34.6098 109.652 33.748Z" fill="#E0E0E0"/>
<path d="M166.964 63.304C166.899 61.8687 166.395 60.4881 165.52 59.348C164.705 58.2012 163.551 57.3382 162.22 56.88C161.51 56.6592 160.762 56.5847 160.023 56.661C159.283 56.7373 158.566 56.9628 157.916 57.324C157.14 57.7571 156.482 58.3737 156 59.12C155.519 58.0728 154.717 57.206 153.71 56.645C152.703 56.0841 151.544 55.8582 150.4 56C149.008 56.2094 147.717 56.8501 146.708 57.832C145.641 58.7918 144.895 60.0572 144.572 61.456C144.185 63.2533 144.389 65.1275 145.152 66.8C145.972 68.496 147.42 69.94 148.936 71.056C151.492 72.932 154.868 75.296 154.868 75.296C154.868 75.296 158.068 73.32 160.936 71.94C162.632 71.116 164.316 69.94 165.428 68.44C166.479 66.9375 167.017 65.1366 166.964 63.304Z" fill="#F5F5F5"/>
<path d="M50.9234 26.08C50.2913 24.7912 49.2791 23.7274 48.0234 23.032C46.8219 22.3053 45.4234 21.9724 44.0234 22.08C42.8326 22.199 41.7143 22.7077 40.8421 23.5271C39.9699 24.3466 39.3925 25.4309 39.1994 26.612C38.3399 25.8481 37.2598 25.3772 36.1152 25.2672C34.9706 25.1572 33.8206 25.4138 32.8314 26C31.6376 26.7446 30.7084 27.8459 30.1754 29.148C29.5786 30.4554 29.3985 31.9147 29.6594 33.328C30.0204 35.1222 30.9505 36.7522 32.3114 37.976C33.7394 39.208 35.6394 39.952 37.4794 40.376C40.5714 41.076 44.6074 41.904 44.6074 41.904C44.6074 41.904 46.7674 38.8 48.8354 36.4C50.0634 34.968 51.1434 33.24 51.5594 31.4C51.9247 29.6044 51.7017 27.7388 50.9234 26.08Z" fill="#F5F5F5"/>
<path d="M137.36 18.888C137.258 17.592 136.759 16.3588 135.932 15.356C135.163 14.3411 134.094 13.5939 132.876 13.22C131.836 12.9265 130.727 12.9841 129.723 13.384C128.719 13.7839 127.874 14.5037 127.32 15.432C126.993 14.7819 126.525 14.2123 125.952 13.764C125.417 13.3565 124.804 13.0612 124.152 12.8955C123.5 12.7299 122.821 12.6974 122.156 12.8C120.903 13.0315 119.755 13.6498 118.872 14.568C117.935 15.4693 117.297 16.6365 117.044 17.912C116.75 19.5439 116.99 21.2271 117.728 22.712C118.596 24.2245 119.814 25.507 121.28 26.452C123.648 28.052 126.772 30.112 126.772 30.112C126.772 30.112 129.624 28.228 132.164 26.912C133.728 26.143 135.086 25.0116 136.124 23.612C137.035 22.2119 137.469 20.5548 137.36 18.888Z" fill="#F5F5F5"/>
<path d="M41.3631 105.624C41.3147 105.018 41.0815 104.441 40.6951 103.972C40.3352 103.498 39.8358 103.148 39.2671 102.972C38.7821 102.834 38.2654 102.861 37.7968 103.046C37.3282 103.232 36.934 103.567 36.6751 104C36.4569 103.567 36.1071 103.214 35.676 102.992C35.2448 102.77 34.7544 102.69 34.2751 102.764C33.6835 102.871 33.1414 103.164 32.7271 103.6C32.2898 104.02 31.9923 104.565 31.8751 105.16C31.7383 105.922 31.8505 106.707 32.1951 107.4C32.5994 108.107 33.1673 108.706 33.8511 109.148C34.9591 109.904 36.4191 110.856 36.4191 110.856C36.4191 110.856 37.7471 109.976 38.9351 109.352C39.6659 108.993 40.3007 108.465 40.7871 107.812C41.2069 107.162 41.4087 106.396 41.3631 105.624Z" fill="#F5F5F5"/>
<path d="M82.5249 17.444C82.5479 16.7239 82.3482 16.0143 81.9529 15.412C81.5908 14.8082 81.0478 14.3338 80.4009 14.056C80.0542 13.9191 79.6834 13.8538 79.3108 13.8641C78.9382 13.8744 78.5715 13.9601 78.2329 14.116C77.8265 14.3019 77.4721 14.5848 77.2009 14.94C77.0602 14.5625 76.8375 14.221 76.5489 13.94C76.279 13.6825 75.96 13.4821 75.6108 13.3508C75.2617 13.2195 74.8896 13.1601 74.5169 13.176C73.8145 13.2301 73.1463 13.5013 72.6049 13.952C72.0369 14.3927 71.618 14.9973 71.4049 15.684C71.1453 16.5635 71.1761 17.5034 71.4929 18.364C71.8794 19.2483 72.4736 20.0263 73.2249 20.632C74.4249 21.668 76.0249 22.976 76.0249 22.976C76.0249 22.976 77.7089 22.108 79.1849 21.528C80.0935 21.1925 80.9084 20.6438 81.5609 19.928C82.1391 19.2241 82.4769 18.3536 82.5249 17.444Z" fill="#F5F5F5"/>
<path d="M33.9001 72.628C33.9372 71.4489 33.6104 70.2869 32.9641 69.3C32.3644 68.3076 31.4672 67.5294 30.4001 67.076C29.4942 66.7159 28.4952 66.6625 27.5561 66.924C26.617 67.1855 25.7894 67.7475 25.2001 68.524C24.8678 67.6382 24.2624 66.8809 23.4715 66.3618C22.6805 65.8426 21.745 65.5885 20.8001 65.636C19.6478 65.7231 18.5514 66.1678 17.6641 66.908C16.7321 67.6293 16.0438 68.6192 15.6921 69.744C15.2667 71.1881 15.3172 72.7308 15.8361 74.144C16.4719 75.592 17.4441 76.8674 18.6721 77.864C20.6721 79.56 23.2681 81.704 23.2681 81.704C23.2681 81.704 26.0241 80.284 28.4441 79.328C29.9309 78.7892 31.2669 77.9017 32.3401 76.74C33.2901 75.5735 33.8373 74.1311 33.9001 72.628Z" fill="#F5F5F5"/>
<path d="M183.643 85.6C183.666 84.849 183.458 84.1091 183.047 83.48C182.665 82.8512 182.098 82.3564 181.423 82.064C180.844 81.8294 180.204 81.7928 179.602 81.9599C179 82.127 178.47 82.4885 178.095 82.988C177.885 82.4229 177.501 81.9397 176.997 81.6087C176.493 81.2777 175.897 81.1163 175.295 81.148C174.561 81.1975 173.861 81.4774 173.295 81.948C172.701 82.408 172.263 83.039 172.039 83.756C171.766 84.6747 171.798 85.6572 172.131 86.556C172.535 87.4782 173.153 88.2902 173.935 88.924C175.195 90.004 176.863 91.368 176.863 91.368C176.863 91.368 178.615 90.464 180.159 89.856C181.105 89.5112 181.955 88.9463 182.639 88.208C183.246 87.4695 183.598 86.5548 183.643 85.6Z" fill="#F5F5F5"/>
<path d="M157.056 35.86C157.077 35.2008 156.894 34.5512 156.532 34C156.202 33.4494 155.706 33.017 155.116 32.764C154.612 32.5594 154.054 32.527 153.529 32.6716C153.004 32.8162 152.541 33.1298 152.212 33.564C152.077 33.2248 151.868 32.9201 151.6 32.672C151.355 32.4373 151.065 32.2547 150.747 32.1351C150.43 32.0155 150.091 31.9614 149.752 31.976C149.111 32.0226 148.501 32.2704 148.008 32.684C147.49 33.0848 147.108 33.6349 146.912 34.26C146.674 35.0605 146.702 35.9168 146.992 36.7C147.346 37.5046 147.886 38.2135 148.568 38.768C149.668 39.708 151.124 40.904 151.124 40.904C151.124 40.904 152.652 40.104 154 39.584C154.826 39.2836 155.568 38.7899 156.164 38.144C156.7 37.4986 157.013 36.6975 157.056 35.86Z" fill="#F5F5F5"/>
<path d="M34.8555 168.188C39.2555 174.188 47.1235 179.536 54.0555 182.228C60.9875 184.92 66.2275 186.228 73.5115 187.776C88.0315 190.876 106.895 189.888 122.783 187.276C138.671 184.664 154.759 179.676 165.467 167.676L34.8555 168.188Z" fill="#EBEBEB"/>
<path d="M151.872 168.552L151.66 168.732C151.508 168.848 151.296 169.02 151.02 169.24C150.464 169.688 149.616 170.316 148.5 171.092C147.384 171.868 145.976 172.764 144.288 173.712C142.377 174.778 140.412 175.744 138.4 176.604C133.143 178.819 127.652 180.429 122.032 181.404C115.7 182.56 108.62 183.08 101.2 183.128C93.7797 183.176 86.6957 182.932 80.3077 182.108C77.2833 181.724 74.2856 181.154 71.3317 180.4C68.7593 179.742 66.2381 178.898 63.7877 177.876C60.2284 176.412 56.8813 174.477 53.8357 172.124C52.7677 171.28 51.9757 170.576 51.4597 170.084L50.8717 169.52C50.7397 169.392 50.6797 169.32 50.6797 169.32L50.8877 169.504L51.4877 170.052C52.0157 170.536 52.8117 171.228 53.8877 172.052C56.9448 174.373 60.2934 176.283 63.8477 177.732C66.2949 178.743 68.8122 179.576 71.3797 180.224C74.328 180.964 77.3189 181.523 80.3357 181.896C86.7077 182.696 93.7837 182.912 101.2 182.9C108.616 182.888 115.676 182.34 122 181.196C127.61 180.232 133.094 178.639 138.348 176.448C140.357 175.6 142.321 174.65 144.232 173.6C145.92 172.66 147.324 171.772 148.452 171.016C149.58 170.26 150.432 169.632 150.996 169.192L151.644 168.7C151.792 168.604 151.872 168.552 151.872 168.552Z" fill="white"/>
<path d="M126.573 167.6C126.573 167.6 126.541 167.632 126.465 167.688L126.141 167.924C125.857 168.132 125.421 168.42 124.849 168.776C123.222 169.76 121.507 170.589 119.725 171.252C117.08 172.231 114.342 172.936 111.553 173.356C108.139 173.866 104.692 174.118 101.241 174.108C97.7926 174.154 94.3445 174.007 90.9127 173.668C88.1036 173.387 85.3384 172.769 82.6768 171.828C80.8827 171.184 79.1772 170.316 77.6008 169.244C77.0488 168.844 76.6407 168.528 76.3687 168.3L76.0687 168.032L75.9688 167.94C76.0089 167.961 76.0465 167.986 76.0807 168.016L76.3968 168.268C76.6728 168.488 77.0888 168.796 77.6448 169.176C79.2284 170.213 80.9314 171.055 82.7167 171.684C85.3733 172.598 88.1283 173.197 90.9247 173.468C94.3506 173.796 97.7916 173.937 101.233 173.892C104.673 173.902 108.109 173.657 111.513 173.16C114.292 172.75 117.023 172.062 119.665 171.104C121.445 170.461 123.162 169.658 124.797 168.704C125.373 168.364 125.817 168.088 126.109 167.904L126.445 167.684L126.573 167.6Z" fill="white"/>
<path d="M185.916 167.872C185.916 167.928 147.116 167.976 99.296 167.976C51.476 167.976 12.668 167.928 12.668 167.872C12.668 167.816 51.444 167.768 99.296 167.768C147.148 167.768 185.916 167.812 185.916 167.872Z" fill="#263238"/>
<path d="M200.061 129.922C199.563 129.972 199.084 130.139 198.662 130.409C198.241 130.678 197.888 131.043 197.633 131.474C200.321 127.286 201.005 121.618 199.421 116.726C199.109 115.778 198.645 114.77 197.789 114.398C197.5 114.293 197.185 114.286 196.891 114.378C196.598 114.469 196.343 114.655 196.165 114.906C196.393 113.477 196.401 112.021 196.189 110.59C196.093 109.95 195.917 109.258 195.433 108.878C194.765 108.35 193.777 108.698 193.265 109.386C192.753 110.074 192.589 110.986 192.465 111.874C189.813 105.074 183.665 100.042 177.005 99.1856C175.681 99.0136 174.205 99.0376 173.193 99.9456C172.181 100.854 171.973 102.918 173.133 103.666C171.877 103.206 170.561 102.786 169.257 102.958C167.953 103.13 166.657 104.046 166.361 105.446C165.961 107.262 167.345 108.986 168.761 110.054C170.693 111.502 172.901 112.426 174.953 113.654C177.005 114.882 178.981 116.542 179.933 118.882C181.133 121.866 180.433 125.362 179.085 128.222C176.569 133.57 171.841 137.578 166.469 138.91L170.845 148.578C176.381 152.354 191.373 149.278 195.733 144.126C196.421 143.326 197.061 142.306 196.993 141.186C196.925 140.066 195.793 138.994 194.889 139.486C197.869 137.474 201.357 131.294 200.061 129.922Z" fill="#FFBF45"/>
<g opacity="0.6">
<path d="M166.353 105.434C165.953 107.25 167.337 108.974 168.753 110.042C170.685 111.49 172.893 112.414 174.945 113.642C175.811 114.155 176.627 114.747 177.385 115.41C178.221 114.678 178.537 113.306 178.337 112.102C178.109 110.718 177.357 109.506 176.625 108.342C177.574 109.556 178.759 110.565 180.109 111.31C180.601 111.578 181.169 111.81 181.681 111.606C182.509 111.27 182.641 110.006 182.313 109.086C181.985 108.166 181.353 107.402 181.113 106.462C181.823 107.183 182.631 107.801 183.513 108.298C183.94 108.538 184.415 108.68 184.903 108.713C185.392 108.746 185.882 108.67 186.337 108.49C187.361 108.014 188.005 106.83 188.133 105.614C188.151 105.433 188.159 105.251 188.157 105.07C185.125 101.87 181.169 99.7016 177.013 99.1696C175.689 98.9976 174.213 99.0216 173.201 99.9296C172.189 100.838 171.981 102.902 173.141 103.65C171.885 103.19 170.569 102.77 169.265 102.942C167.961 103.114 166.637 104.034 166.353 105.434Z" fill="white"/>
</g>
<path d="M164.753 125.51L152.897 119.11C152.897 119.11 145.661 115.034 142.013 111.49C135.537 105.198 134.013 99.7336 134.013 99.7336L99.0531 115.782L91.9531 118.034C92.8411 121.75 92.9731 128.778 95.3571 135.966C96.0171 137.966 97.9651 139.806 98.0531 139.138C98.1211 138.582 98.0531 139.506 98.0531 139.506C99.2891 142.77 100.717 147.006 104.953 149.954C108.125 154.754 114.905 157.498 117.677 159.082C121.777 161.422 137.337 166.014 137.337 166.014L149.437 166.938L179.765 142.87C179.765 142.87 177.953 132.358 164.753 125.51Z" fill="#FFBF45"/>
<path d="M123.621 151.93C125.693 153.746 126.489 156.614 126.773 159.35C127.057 162.086 126.929 164.886 127.617 167.55C126.253 167.15 124.741 168.246 124.441 169.638C124.141 171.03 124.869 172.498 125.993 173.37C127.164 174.197 128.559 174.649 129.993 174.666C132.393 174.798 134.981 174.13 136.629 172.358C138.141 170.734 138.669 168.458 139.269 166.318C140.293 162.654 141.669 159.094 142.725 155.438C143.781 151.782 144.489 147.958 144.121 144.17L145.153 144.53C146.429 144.902 145.209 140.626 143.933 138.702" fill="#FFBF45"/>
<path d="M143.925 138.702C144.028 138.838 144.121 138.981 144.205 139.13C144.455 139.562 144.677 140.009 144.869 140.47C145.182 141.209 145.428 141.975 145.605 142.758C145.66 142.997 145.699 143.241 145.721 143.486C145.759 143.753 145.744 144.024 145.677 144.286C145.66 144.363 145.622 144.433 145.567 144.49C145.511 144.546 145.442 144.586 145.365 144.606C145.287 144.62 145.207 144.62 145.129 144.606L144.925 144.534L144.093 144.25L144.173 144.182C144.349 146.073 144.3 147.978 144.029 149.858C143.69 152.144 143.169 154.401 142.473 156.606C141.757 159.006 140.873 161.49 140.025 164.138C139.597 165.458 139.225 166.83 138.825 168.222C138.462 169.666 137.806 171.021 136.897 172.202C135.636 173.594 133.906 174.474 132.037 174.674C131.146 174.796 130.243 174.807 129.349 174.706C128.474 174.617 127.62 174.379 126.825 174.002C126.049 173.626 125.39 173.047 124.917 172.326C124.452 171.629 124.234 170.797 124.297 169.962C124.441 168.306 126.141 167.026 127.641 167.458L127.533 167.562C126.929 165.122 126.957 162.818 126.821 160.818C126.764 159.087 126.472 157.373 125.953 155.722C125.617 154.661 125.091 153.67 124.401 152.798C124.22 152.568 124.025 152.351 123.817 152.146C123.677 152.01 123.605 151.93 123.605 151.93C123.913 152.179 124.195 152.459 124.445 152.766C125.155 153.633 125.698 154.624 126.045 155.69C126.581 157.349 126.884 159.075 126.945 160.818C127.093 162.818 127.081 165.122 127.685 167.526L127.721 167.674L127.577 167.634C126.205 167.234 124.589 168.434 124.469 169.986C124.41 170.779 124.62 171.57 125.065 172.23C125.52 172.921 126.155 173.474 126.901 173.83C127.674 174.197 128.506 174.427 129.357 174.51C130.234 174.611 131.12 174.6 131.993 174.478C133.826 174.284 135.521 173.419 136.753 172.05C137.643 170.889 138.285 169.559 138.641 168.142C139.041 166.762 139.405 165.378 139.841 164.058C140.681 161.406 141.585 158.91 142.309 156.534C143.01 154.338 143.535 152.091 143.881 149.814C144.159 147.947 144.219 146.054 144.061 144.174V144.078L144.153 144.11L144.985 144.402C145.109 144.464 145.247 144.494 145.385 144.49C145.442 144.473 145.492 144.442 145.531 144.399C145.571 144.356 145.598 144.303 145.609 144.246C145.673 144 145.689 143.745 145.657 143.494C145.635 143.253 145.599 143.014 145.549 142.778C145.38 141.999 145.145 141.236 144.845 140.498C144.661 140.037 144.452 139.587 144.217 139.15C144.137 139.006 144.073 138.898 144.029 138.814C143.991 138.78 143.956 138.743 143.925 138.702Z" fill="#263238"/>
<path d="M129.237 168.882C129.237 168.914 128.941 169.046 128.505 169.354C127.933 169.748 127.452 170.258 127.092 170.852C126.732 171.445 126.502 172.109 126.417 172.798C126.345 173.326 126.369 173.662 126.337 173.666C126.252 173.379 126.229 173.078 126.269 172.782C126.317 172.06 126.538 171.36 126.913 170.742C127.288 170.124 127.807 169.605 128.425 169.23C128.668 169.057 128.945 168.938 129.237 168.882Z" fill="#263238"/>
<path d="M132.224 169.074C132.244 169.102 131.936 169.298 131.528 169.702C130.993 170.221 130.574 170.848 130.3 171.542C130.03 172.238 129.907 172.983 129.94 173.73C129.968 174.302 130.056 174.654 130.024 174.662C129.887 174.372 129.81 174.058 129.796 173.738C129.715 172.966 129.821 172.186 130.105 171.464C130.389 170.742 130.843 170.099 131.428 169.59C131.656 169.365 131.926 169.19 132.224 169.074Z" fill="#263238"/>
<path d="M102.672 148.294C103.964 150.99 105.408 153.27 105.688 156.006C105.968 158.742 105.848 161.542 106.532 164.206C105.168 163.806 103.66 164.906 103.36 166.294C103.06 167.682 103.784 169.158 104.908 170.03C106.081 170.853 107.475 171.304 108.908 171.322C111.308 171.458 113.896 170.786 115.544 169.014C117.056 167.39 118.292 161.766 118.744 159.59" fill="#FFBF45"/>
<path d="M118.753 159.59C118.756 159.63 118.756 159.67 118.753 159.71C118.737 159.798 118.717 159.914 118.693 160.058C118.633 160.362 118.545 160.814 118.417 161.39C118.073 163.014 117.632 164.617 117.097 166.19C116.925 166.69 116.697 167.202 116.473 167.73C116.223 168.283 115.881 168.791 115.461 169.23C114.495 170.163 113.293 170.817 111.985 171.122C110.544 171.475 109.044 171.517 107.585 171.246C106.812 171.108 106.069 170.837 105.389 170.446C104.681 170.037 104.098 169.444 103.701 168.73C103.406 168.207 103.239 167.621 103.213 167.022C103.185 166.426 103.345 165.838 103.669 165.338C103.982 164.855 104.426 164.472 104.949 164.234C105.202 164.118 105.472 164.044 105.749 164.014C106.024 163.993 106.302 164.018 106.569 164.09L106.445 164.21C105.857 161.854 105.869 159.586 105.741 157.594C105.711 156.653 105.604 155.717 105.421 154.794C105.24 154.01 104.989 153.245 104.673 152.506C104.097 151.154 103.545 150.106 103.201 149.394C103.025 149.03 102.889 148.754 102.801 148.562C102.761 148.474 102.729 148.402 102.705 148.342C102.681 148.282 102.673 148.27 102.677 148.266C102.694 148.288 102.709 148.312 102.721 148.338C102.749 148.394 102.785 148.462 102.833 148.546C102.933 148.746 103.077 149.018 103.257 149.346C103.621 150.062 104.189 151.086 104.785 152.442C105.119 153.185 105.386 153.956 105.585 154.746C105.774 155.668 105.888 156.605 105.925 157.546C106.069 159.546 106.069 161.802 106.653 164.126L106.697 164.298L106.529 164.246C105.553 163.954 104.425 164.51 103.845 165.414C103.561 165.897 103.415 166.449 103.423 167.01C103.431 167.57 103.592 168.118 103.889 168.594C104.266 169.274 104.818 169.84 105.489 170.234C106.148 170.614 106.868 170.876 107.617 171.01C109.041 171.274 110.505 171.236 111.913 170.898C113.19 170.607 114.365 169.977 115.313 169.074C115.722 168.649 116.056 168.158 116.301 167.622C116.538 167.127 116.749 166.619 116.933 166.102C117.48 164.528 117.942 162.925 118.317 161.302C118.45 160.736 118.554 160.296 118.629 159.982C118.661 159.838 118.689 159.726 118.709 159.638C118.722 159.621 118.737 159.605 118.753 159.59Z" fill="#263238"/>
<path d="M108.157 165.538C108.157 165.57 107.861 165.702 107.421 166.01C106.85 166.404 106.369 166.915 106.009 167.509C105.65 168.102 105.419 168.765 105.333 169.454C105.261 169.986 105.289 170.322 105.253 170.322C105.168 170.036 105.145 169.736 105.185 169.442C105.235 168.72 105.457 168.021 105.832 167.402C106.207 166.784 106.725 166.264 107.341 165.886C107.586 165.715 107.864 165.596 108.157 165.538Z" fill="#263238"/>
<path d="M111.153 165.746C111.153 165.774 110.869 165.966 110.457 166.37C109.925 166.893 109.507 167.521 109.229 168.214C108.96 168.909 108.839 169.653 108.873 170.398C108.897 170.974 108.989 171.322 108.953 171.33C108.815 171.042 108.738 170.729 108.725 170.41C108.645 169.64 108.751 168.863 109.035 168.143C109.318 167.423 109.77 166.782 110.353 166.274C110.58 166.043 110.852 165.864 111.153 165.746Z" fill="#263238"/>
<path d="M121.717 160.674C121.6 160.657 121.485 160.63 121.373 160.594C121.153 160.534 120.821 160.454 120.405 160.322C119.225 159.95 118.072 159.494 116.957 158.958C115.305 158.154 113.739 157.187 112.281 156.07C110.498 154.693 108.896 153.096 107.513 151.318C107.169 150.894 106.877 150.442 106.561 150.014L106.733 149.894C106.889 150.086 106.999 150.312 107.053 150.554C107.06 150.639 107.033 150.724 106.977 150.79C106.923 150.846 106.851 150.883 106.773 150.894C106.649 150.909 106.523 150.903 106.401 150.874C105.957 150.78 105.536 150.596 105.165 150.334C103.702 149.384 102.435 148.162 101.433 146.734C100.631 145.613 99.9368 144.418 99.361 143.166C98.877 142.11 98.561 141.246 98.337 140.646C98.229 140.35 98.161 140.114 98.109 139.954C98.0816 139.875 98.0589 139.795 98.041 139.714C98.0833 139.785 98.1169 139.862 98.141 139.942C98.209 140.114 98.293 140.342 98.405 140.622C98.629 141.214 98.977 142.07 99.481 143.11C100.067 144.347 100.768 145.527 101.573 146.634C102.572 148.036 103.828 149.237 105.273 150.174C105.62 150.411 106.01 150.58 106.421 150.67C106.625 150.71 106.865 150.706 106.821 150.566C106.77 150.363 106.674 150.175 106.541 150.014L106.709 149.894C107.021 150.318 107.313 150.766 107.657 151.186C109.028 152.95 110.612 154.539 112.373 155.914C114.797 157.805 117.52 159.278 120.429 160.274C120.829 160.418 121.169 160.51 121.385 160.582C121.498 160.603 121.609 160.633 121.717 160.674Z" fill="#263238"/>
<path d="M176.405 137.962L165.085 146.674C161.757 147.15 159.485 149.426 157.217 151.898C154.229 155.138 154.905 158.382 154.017 161.622C153.782 162.262 153.493 162.882 153.153 163.474C152.477 164.926 150.701 164.494 149.773 164.774C148.665 165.106 148.173 165.634 147.653 166.674C147.403 167.206 147.313 167.8 147.395 168.382C147.476 168.965 147.726 169.511 148.113 169.954C148.789 170.666 149.925 170.802 150.885 171.014C153.561 171.598 156.325 172.19 159.013 171.662C161.701 171.134 164.305 169.182 164.705 166.462C166.613 166.946 168.632 166.737 170.401 165.874C172.156 164.997 173.702 163.753 174.933 162.226C177.733 158.91 179.769 154.686 180.033 150.354C180.297 146.022 178.789 141.59 176.405 137.962Z" fill="#FFBF45"/>
<path d="M167.553 146.674C167.521 146.669 167.489 146.658 167.461 146.642L167.201 146.53C166.867 146.383 166.524 146.26 166.173 146.162C164.887 145.798 163.536 145.733 162.221 145.97C161.315 146.128 160.437 146.416 159.613 146.826C158.67 147.3 157.805 147.916 157.049 148.654C155.33 150.362 154.12 152.514 153.553 154.87C152.997 157.235 152.887 159.684 153.229 162.09C153.345 162.643 153.309 163.218 153.125 163.754C153.008 164.01 152.817 164.226 152.577 164.374C152.349 164.508 152.098 164.597 151.837 164.638C151.333 164.726 150.845 164.718 150.393 164.77C149.959 164.811 149.539 164.94 149.157 165.15C148.571 165.461 148.096 165.948 147.799 166.541C147.501 167.134 147.396 167.806 147.497 168.462C147.571 168.945 147.738 169.41 147.989 169.83C147.906 169.733 147.835 169.627 147.777 169.514C147.597 169.191 147.475 168.839 147.417 168.474C147.317 167.893 147.374 167.297 147.581 166.746C147.808 166.168 148.189 165.663 148.682 165.286C149.176 164.91 149.764 164.676 150.381 164.61C150.849 164.554 151.333 164.558 151.813 164.47C152.057 164.444 152.291 164.358 152.494 164.218C152.696 164.078 152.859 163.889 152.969 163.67C153.134 163.163 153.16 162.622 153.045 162.102C152.69 159.674 152.798 157.201 153.361 154.814C153.934 152.412 155.172 150.22 156.933 148.49C157.706 147.744 158.59 147.122 159.553 146.646C160.394 146.236 161.29 145.952 162.213 145.802C163.548 145.573 164.918 145.661 166.213 146.058C166.683 146.207 167.133 146.414 167.553 146.674Z" fill="#263238"/>
<path d="M150.442 170.726C150.233 170.51 150.084 170.244 150.01 169.954C149.773 169.26 149.793 168.504 150.065 167.823C150.337 167.142 150.844 166.581 151.494 166.242C151.748 166.081 152.041 165.993 152.342 165.986C152.342 166.018 152.018 166.094 151.57 166.386C150.976 166.738 150.515 167.276 150.258 167.917C150.001 168.557 149.963 169.265 150.15 169.93C150.286 170.426 150.474 170.706 150.442 170.726Z" fill="#263238"/>
<path d="M154.752 171.546C154.663 171.521 154.58 171.477 154.508 171.418C154.303 171.277 154.121 171.106 153.968 170.91C153.703 170.587 153.51 170.211 153.405 169.807C153.299 169.403 153.282 168.98 153.355 168.569C153.429 168.158 153.591 167.768 153.83 167.425C154.069 167.083 154.38 166.796 154.74 166.586C154.952 166.454 155.183 166.356 155.424 166.294C155.511 166.263 155.604 166.252 155.696 166.262C155.394 166.39 155.101 166.539 154.82 166.71C154.492 166.923 154.21 167.201 153.993 167.527C153.777 167.853 153.629 168.22 153.56 168.606C153.491 168.991 153.502 169.387 153.592 169.768C153.682 170.149 153.85 170.508 154.084 170.822C154.29 171.078 154.514 171.32 154.752 171.546Z" fill="#263238"/>
<path d="M180.034 150.346C179.994 150.346 180.118 149.638 180.174 148.49C180.209 147.823 180.209 147.156 180.174 146.49C180.118 145.671 180.015 144.856 179.866 144.05C179.579 142.584 179.148 141.15 178.578 139.77C178.362 139.238 178.178 138.81 178.038 138.522C177.959 138.372 177.896 138.216 177.85 138.054C177.95 138.189 178.037 138.334 178.11 138.486C178.27 138.766 178.478 139.182 178.714 139.71C179.328 141.087 179.783 142.529 180.07 144.01C180.223 144.826 180.322 145.652 180.366 146.482C180.397 147.158 180.386 147.835 180.334 148.51C180.302 148.966 180.243 149.42 180.158 149.87C180.131 150.032 180.089 150.191 180.034 150.346Z" fill="#263238"/>
<path d="M155.577 135.698C155.501 135.657 155.432 135.607 155.369 135.55C155.237 135.446 155.053 135.282 154.829 135.066C154.219 134.461 153.692 133.779 153.261 133.038L153.425 132.962C153.761 133.932 153.881 134.964 153.777 135.986C153.742 136.317 153.683 136.646 153.601 136.97L153.541 137.206L153.413 136.998C152.581 135.658 151.853 134.47 151.341 133.61L150.753 132.598C150.674 132.478 150.608 132.351 150.557 132.218C150.656 132.32 150.742 132.434 150.813 132.558L151.465 133.538C152.009 134.378 152.757 135.538 153.597 136.89L153.409 136.918C153.487 136.605 153.543 136.286 153.577 135.966C153.678 134.973 153.57 133.97 153.261 133.022L153.429 132.946C153.843 133.683 154.343 134.369 154.917 134.99C155.325 135.442 155.593 135.678 155.577 135.698Z" fill="#263238"/>
<g opacity="0.3">
<path d="M155.513 149.946C153.285 151.992 151.709 154.649 150.981 157.586C150.85 158.393 150.588 159.174 150.205 159.898C149.273 161.342 147.301 161.706 145.585 161.542L140.941 161.114L139.305 166.162C142.301 166.562 147.545 166.79 147.545 166.79C148.253 165.334 149.301 164.65 150.849 164.606C151.283 164.589 151.715 164.527 152.137 164.422C152.406 164.323 152.642 164.149 152.816 163.921C152.991 163.693 153.096 163.42 153.121 163.134C153.16 162.56 153.108 161.983 152.965 161.426C152.271 157.413 153.187 153.288 155.513 149.946Z" fill="black"/>
</g>
<path opacity="0.3" d="M113.312 156.194L126.693 160.79L127.001 162.746C127.001 162.746 114.352 159.006 113.312 156.194Z" fill="black"/>
<g opacity="0.6">
<path d="M127.597 102.138L92.8652 120.274C95.1052 132.274 99.1972 139.638 108.533 147.506C109.521 148.338 113.805 151.262 114.989 151.782C116.166 152.351 117.517 152.438 118.757 152.026C120.277 151.442 121.249 149.958 121.917 148.474C123.773 144.37 124.049 139.758 124.297 135.274C124.979 136.141 125.431 137.166 125.613 138.254C128.301 134.654 123.517 122.31 123.749 117.826C124.153 110.022 129.033 109.818 127.597 102.138Z" fill="white"/>
</g>
<path d="M92.9008 120.37C92.9008 120.37 85.7008 103.41 85.6008 96.0136C85.5008 88.6176 91.7568 83.1336 91.7568 83.1336C92.7297 78.4417 94.1082 73.843 95.8768 69.3896C98.6208 62.7376 106.909 52.5016 109.225 53.2376C111.541 53.9736 112.605 55.2376 112.617 61.2376C112.629 67.2376 113.377 70.7016 113.377 70.7016C113.377 70.7016 118.829 71.9016 120.577 73.8616C120.577 73.8616 121.813 73.7496 123.345 72.4136C124.877 71.0776 135.745 61.5816 138.861 63.8376C141.977 66.0936 140.917 76.8856 138.493 81.4936C136.069 86.1016 132.093 92.0376 131.961 92.5856C131.829 93.1336 133.449 100.01 132.557 103.55C131.665 107.09 129.101 111.55 124.789 114.89C120.477 118.23 107.589 126.17 101.445 124.674C95.3008 123.178 92.9008 120.37 92.9008 120.37Z" fill="#FFBF45"/>
<path opacity="0.6" d="M92.9008 120.37C92.9008 120.37 85.7008 103.41 85.6008 96.0136C85.5008 88.6176 91.7568 83.1336 91.7568 83.1336C92.7297 78.4417 94.1082 73.843 95.8768 69.3896C98.6208 62.7376 106.909 52.5016 109.225 53.2376C111.541 53.9736 112.605 55.2376 112.617 61.2376C112.629 67.2376 113.377 70.7016 113.377 70.7016C113.377 70.7016 118.829 71.9016 120.577 73.8616C120.577 73.8616 121.813 73.7496 123.345 72.4136C124.877 71.0776 135.745 61.5816 138.861 63.8376C141.977 66.0936 140.917 76.8856 138.493 81.4936C136.069 86.1016 132.093 92.0376 131.961 92.5856C131.829 93.1336 133.449 100.01 132.557 103.55C131.665 107.09 129.101 111.55 124.789 114.89C120.477 118.23 107.589 126.17 101.445 124.674C95.3008 123.178 92.9008 120.37 92.9008 120.37Z" fill="white"/>
<path d="M138.484 81.5056C140.908 76.8976 141.952 66.1056 138.852 63.8496C135.752 61.5936 124.872 71.0736 123.336 72.4256C121.8 73.7776 120.568 73.8736 120.568 73.8736C120.38 73.6661 120.171 73.4784 119.944 73.3136C118.093 74.6784 116.442 76.2938 115.036 78.1136C113.207 80.4651 112.05 83.2686 111.688 86.2256C111.552 87.5496 111.624 88.9536 112.292 90.1096C113.124 91.5456 114.728 92.3496 116.316 92.8256C121.824 94.4816 132.284 90.4256 129.4 103.17C129.4 103.17 127.144 109.006 125.044 112.622C124.504 113.554 124.156 115.598 123.844 116.622C124.204 116.362 126.048 116.898 126.336 116.674C130.652 113.342 136.808 109.202 135.644 105.742C133.784 100.214 131.796 93.1336 131.944 92.5896C132.092 92.0456 136.06 86.1096 138.484 81.5056Z" fill="#FFBF45"/>
<g opacity="0.6">
<path d="M138.129 65.9456C137.389 65.4456 136.393 65.7096 135.577 66.0696C131.14 68.0862 127.351 71.2964 124.633 75.3416C124.677 79.5811 125.948 83.7171 128.293 87.2496C128.657 87.7936 129.181 88.3856 129.829 88.2976C130.061 88.2329 130.278 88.1228 130.467 87.9739C130.657 87.8249 130.815 87.6399 130.933 87.4296C135.005 81.9136 138.113 75.5296 138.877 68.7136C138.989 67.7136 138.961 66.5096 138.129 65.9456Z" fill="white"/>
</g>
<path d="M106.238 83.7176C108.05 81.2936 109.702 78.7456 111.686 76.4616C113.22 74.628 115.063 73.0756 117.13 71.8736C115.906 71.4093 114.652 71.0271 113.378 70.7296C113.378 70.7296 112.63 67.2896 112.618 61.2656C112.606 55.2416 111.538 53.9856 109.226 53.2656C106.914 52.5456 98.6216 62.7656 95.8776 69.4176C94.3446 73.2571 93.1089 77.2087 92.1816 81.2376L92.2576 81.2736C93.9616 82.4736 95.3096 84.1056 96.9736 85.3536C98.6376 86.6016 100.826 87.4656 102.79 86.7776C104.254 86.2336 105.306 84.9616 106.238 83.7176Z" fill="#FFBF45"/>
<path d="M106.544 91.4736C105.602 90.7773 104.545 90.2532 103.42 89.9256C102.732 89.6976 101.892 89.5496 101.352 90.0336C101.15 90.2455 101.015 90.5119 100.963 90.7998C100.911 91.0878 100.945 91.3846 101.06 91.6536C101.299 92.1888 101.658 92.6622 102.108 93.0376C102.533 93.4938 103.063 93.8386 103.652 94.0416C104.644 94.3136 105.14 94.1296 106.052 93.6656C106.474 93.4539 106.864 93.1847 107.212 92.8656C107.464 92.6216 107.5 91.9736 106.544 91.4736Z" fill="#263238"/>
<path d="M110.805 96.4696C109.177 97.7296 108.741 99.5216 108.233 101.518C107.725 103.514 107.369 105.602 106.265 107.338C105.161 109.074 103.037 110.382 101.065 109.794C100.532 109.615 100.039 109.333 99.6159 108.964C99.1924 108.595 98.846 108.145 98.5967 107.642C98.1047 106.629 97.8463 105.519 97.8407 104.394C97.7749 102.669 98.0833 100.95 98.7448 99.3557C99.4063 97.7614 100.405 96.3292 101.673 95.1576C102.235 95.243 102.782 95.4101 103.297 95.6536C103.753 95.9576 106.321 97.4856 108.189 97.0296C110.057 96.5736 110.805 96.4696 110.805 96.4696Z" fill="#FFBF45"/>
<path d="M102.325 103.046C102.267 102.695 102.267 102.337 102.325 101.986C102.418 101.131 102.644 100.297 102.997 99.5136C103.344 98.7265 103.811 97.9978 104.381 97.3536C104.607 97.0766 104.878 96.8388 105.181 96.6496C105.205 96.6776 104.905 96.9496 104.497 97.4496C103.972 98.1064 103.533 98.8284 103.193 99.5976C102.849 100.362 102.608 101.169 102.477 101.998C102.353 102.642 102.353 103.046 102.325 103.046Z" fill="#263238"/>
<path d="M113.72 94.6256C113.689 94.6971 113.649 94.7643 113.6 94.8256C113.474 95.0068 113.328 95.1732 113.164 95.3216C112.543 95.8589 111.813 96.2547 111.024 96.4816C110.489 96.6506 109.946 96.7921 109.396 96.9056C108.769 97.0688 108.124 97.1535 107.476 97.1576C105.975 97.1485 104.516 96.6671 103.304 95.7816C103.005 95.5583 102.665 95.3953 102.304 95.3016C101.952 95.2296 101.572 95.3016 101.188 95.2256C100.825 95.1592 100.481 95.0142 100.179 94.8007C99.8781 94.5871 99.6271 94.3103 99.4442 93.9896C99.0932 93.4285 98.9087 92.7794 98.9122 92.1176C98.9185 91.546 99.0438 90.9821 99.2802 90.4616C99.6173 89.7087 100.157 89.0646 100.84 88.6016C101.027 88.4797 101.224 88.374 101.428 88.2856C101.497 88.2532 101.57 88.2278 101.644 88.2096C101.644 88.2096 101.352 88.3416 100.888 88.6696C100.241 89.1429 99.7328 89.7811 99.4162 90.5176C99.1998 91.0234 99.0869 91.5674 99.0842 92.1176C99.0905 92.745 99.2705 93.3583 99.6042 93.8896C99.774 94.1825 100.005 94.4355 100.281 94.6315C100.557 94.8274 100.872 94.9619 101.204 95.0256C101.548 95.0856 101.928 95.0256 102.328 95.0976C102.716 95.1973 103.082 95.3711 103.404 95.6096C104.583 96.4715 106 96.9454 107.46 96.9656C108.095 96.9659 108.728 96.8893 109.344 96.7376C109.932 96.6136 110.48 96.4896 110.964 96.3376C111.74 96.1304 112.465 95.764 113.092 95.2616C113.313 95.0614 113.523 94.8491 113.72 94.6256Z" fill="#263238"/>
<g opacity="0.6">
<path d="M95.0769 79.3576C98.934 76.2882 103.104 73.6336 107.517 71.4376C108.166 71.1668 108.757 70.7729 109.257 70.2776C109.833 69.6176 110.033 68.7256 110.213 67.8776C110.881 64.7216 111.549 61.4176 110.685 58.3096C110.381 57.2176 109.689 56.0216 108.557 55.9376C107.841 55.8816 107.185 56.2976 106.613 56.7376C102.537 59.8656 100.141 64.6496 97.8769 69.2656C96.3529 72.3776 94.7969 75.6016 94.6289 79.0656" fill="white"/>
</g>
<path d="M102.776 95.3736C102.518 95.076 102.382 94.6914 102.396 94.2976C102.353 93.9049 102.457 93.5102 102.688 93.1896C102.752 93.2136 102.58 93.6896 102.604 94.2856C102.628 94.8816 102.836 95.3456 102.776 95.3736Z" fill="#263238"/>
<g opacity="0.6">
<path d="M118.424 81.0976C117.496 80.8997 116.531 80.9438 115.624 81.2256C115.455 81.2627 115.296 81.3358 115.158 81.4401C115.02 81.5443 114.906 81.6772 114.824 81.8296C114.636 82.3296 115.096 82.8336 115.544 83.1256C116.401 83.6758 117.378 84.0082 118.392 84.0936C118.752 84.1381 119.116 84.1095 119.464 84.0096C119.638 83.959 119.798 83.8727 119.936 83.7563C120.074 83.6399 120.186 83.4959 120.264 83.3336C120.352 83.0738 120.361 82.7938 120.29 82.529C120.219 82.2642 120.071 82.0264 119.864 81.8456C119.448 81.486 118.964 81.214 118.44 81.0456" fill="white"/>
</g>
<g opacity="0.6">
<path d="M104.948 76.8296C104.019 76.6308 103.055 76.6749 102.148 76.9576C101.975 76.992 101.812 77.0639 101.671 77.1683C101.529 77.2727 101.412 77.4069 101.328 77.5616C101.136 78.0616 101.596 78.5656 102.044 78.8576C102.9 79.4072 103.878 79.7395 104.892 79.8256C105.251 79.8701 105.616 79.8415 105.964 79.7416C106.137 79.6905 106.297 79.6041 106.435 79.4877C106.573 79.3713 106.685 79.2276 106.764 79.0656C106.851 78.8057 106.859 78.526 106.788 78.2614C106.717 77.9968 106.569 77.759 106.364 77.5776C105.948 77.2172 105.464 76.945 104.94 76.7776" fill="white"/>
</g>
<path d="M105.76 62.3296C105.788 62.3576 105.288 62.8696 104.64 63.8176C104.262 64.3709 103.926 64.9511 103.632 65.5536C102.911 67.035 102.46 68.6335 102.3 70.2736C102.237 70.9383 102.221 71.6066 102.252 72.2736C102.312 73.4176 102.468 74.1176 102.428 74.1256C102.367 73.9682 102.323 73.8046 102.296 73.6376C102.252 73.4462 102.217 73.2526 102.192 73.0576C102.164 72.8296 102.116 72.5696 102.104 72.2816C102.049 71.6041 102.049 70.9231 102.104 70.2456C102.246 68.5826 102.706 66.9625 103.46 65.4736C103.765 64.8668 104.12 64.2862 104.52 63.7376C104.684 63.4976 104.856 63.2976 105 63.1216C105.125 62.9677 105.259 62.8208 105.4 62.6816C105.507 62.5514 105.628 62.4333 105.76 62.3296Z" fill="#263238"/>
<path d="M117.473 88.0096C117.466 88.3672 117.353 88.7147 117.148 89.0081C116.943 89.3014 116.656 89.5274 116.323 89.6574C115.99 89.7875 115.625 89.8158 115.276 89.7387C114.927 89.6616 114.608 89.4826 114.36 89.2244C114.113 88.9662 113.947 88.6404 113.885 88.2881C113.823 87.9359 113.866 87.573 114.01 87.2456C114.154 86.9181 114.392 86.6407 114.694 86.4484C114.995 86.2562 115.347 86.1578 115.705 86.1656C115.942 86.1703 116.176 86.2217 116.394 86.317C116.611 86.4122 116.807 86.5494 116.972 86.7207C117.136 86.892 117.265 87.0941 117.351 87.3152C117.437 87.5364 117.478 87.7723 117.473 88.0096Z" fill="#263238"/>
<path d="M103.709 83.2056C103.702 83.5633 103.589 83.9108 103.384 84.2041C103.18 84.4974 102.892 84.7234 102.559 84.8535C102.226 84.9835 101.862 85.0118 101.512 84.9347C101.163 84.8577 100.844 84.6787 100.597 84.4205C100.349 84.1623 100.184 83.8364 100.121 83.4842C100.059 83.1319 100.103 82.7691 100.247 82.4416C100.391 82.1141 100.628 81.8367 100.93 81.6445C101.232 81.4522 101.584 81.3538 101.941 81.3616C102.42 81.3721 102.875 81.5722 103.207 81.9179C103.538 82.2637 103.719 82.7268 103.709 83.2056Z" fill="#263238"/>
<path d="M137.761 68.9856C137.709 69.0484 137.653 69.1073 137.593 69.1616L137.093 69.6416C136.657 70.0416 136.033 70.6656 135.293 71.4496C133.357 73.5007 131.631 75.7398 130.141 78.1336L130.025 78.3216L129.953 78.1136C129.921 78.0136 129.881 77.9056 129.845 77.7976C129.497 76.8056 129.165 75.8416 128.849 74.9376H129.037C128.116 76.9431 127.594 79.1087 127.501 81.3136C127.474 81.9562 127.482 82.5998 127.525 83.2416C127.55 83.4727 127.562 83.7051 127.561 83.9376C127.54 83.881 127.528 83.8217 127.525 83.7616C127.525 83.6456 127.477 83.4736 127.453 83.2496C127.386 82.6052 127.359 81.9573 127.373 81.3096C127.423 79.0795 127.927 76.8831 128.853 74.8536L128.957 74.6256L129.041 74.8616L130.041 77.7216L130.149 78.0376L129.965 78.0176C131.46 75.6105 133.212 73.3721 135.189 71.3416C135.945 70.5696 136.585 69.9736 137.037 69.5736C137.261 69.3736 137.437 69.2256 137.565 69.1216C137.624 69.0681 137.69 69.0224 137.761 68.9856Z" fill="#263238"/>
<path d="M109.257 126.186C109.288 126.295 109.305 126.408 109.309 126.522C109.333 126.742 109.357 127.07 109.377 127.482C109.418 128.632 109.369 129.783 109.229 130.926L109.209 131.082L109.085 130.982C107.763 129.955 106.632 128.706 105.741 127.29C105.645 127.138 105.557 126.986 105.469 126.838L105.661 126.762L106.705 131.082L106.781 131.394L106.557 131.166C105.743 130.341 105.078 129.383 104.589 128.334C104.452 128.04 104.332 127.74 104.229 127.434C104.187 127.327 104.157 127.215 104.141 127.102C104.198 127.201 104.245 127.305 104.281 127.414C104.369 127.618 104.497 127.918 104.681 128.286C105.196 129.304 105.871 130.233 106.681 131.038L106.533 131.122C106.217 129.854 105.849 128.386 105.457 126.81L105.289 126.13L105.649 126.734C105.737 126.882 105.825 127.03 105.917 127.178C106.796 128.574 107.903 129.812 109.193 130.842L109.049 130.902C109.201 129.769 109.276 128.628 109.273 127.486C109.273 127.086 109.273 126.774 109.273 126.526C109.257 126.413 109.251 126.299 109.257 126.186Z" fill="#263238"/>
<path d="M43.092 161.852C41.236 163.16 39.308 164.448 37.12 165.052C34.932 165.656 32.404 165.452 30.644 164.028C28.388 162.188 27.98 158.896 28.244 155.992C28.752 150.08 31.252 144.22 30.112 138.392C29.6818 136.288 28.7937 134.305 27.5106 132.583C26.2275 130.86 24.581 129.442 22.688 128.428C20.7824 127.444 18.6836 126.892 16.5406 126.811C14.3977 126.729 12.263 127.12 10.288 127.956C7.83605 129.016 5.54005 131.048 5.24805 133.7C6.04805 136.164 9.71605 138.2 12.152 139.064C14.588 139.928 17.296 140.872 18.512 143.152C19.568 145.132 19.168 147.528 18.912 149.76C18.5053 153.548 18.6509 157.374 19.344 161.12C19.864 163.92 20.736 166.764 22.62 168.908C25.564 172.26 30.456 173.264 34.892 172.788C39.328 172.312 43.516 170.596 47.788 169.32L43.092 161.852Z" fill="#FFBF45"/>
<g opacity="0.5">
<path d="M29.7564 140.524C29.9395 140.036 30.0892 139.536 30.2044 139.028C30.1724 138.817 30.1364 138.605 30.0964 138.392C29.6662 136.288 28.778 134.305 27.495 132.583C26.2119 130.86 24.5654 129.442 22.6724 128.428C20.7667 127.444 18.668 126.892 16.525 126.811C14.382 126.729 12.2474 127.12 10.2724 127.956C7.82042 129.016 5.52442 131.048 5.23242 133.7C6.03242 136.164 9.70042 138.2 12.1364 139.064C14.5724 139.928 17.2804 140.872 18.4964 143.152C19.2084 144.488 19.2564 146.012 19.1404 147.552C19.5844 147.612 20.0333 147.628 20.4804 147.6C24.5684 147.348 28.3004 144.372 29.7564 140.524Z" fill="white"/>
</g>
<path d="M73.5047 167.7C74.7047 166.936 77.4167 166.736 78.8247 166.576C80.2327 166.416 81.7647 166.816 82.7007 167.88C83.6367 168.944 83.7967 170.716 82.8407 171.76C81.7487 172.96 79.2727 172.936 77.6407 172.936C73.2407 172.936 70.6687 172.852 66.6367 172.936" fill="#FFBF45"/>
<path d="M66.6484 172.936C66.7501 172.917 66.8531 172.908 66.9564 172.908L67.8444 172.872C68.6124 172.852 69.7244 172.828 71.1004 172.824H75.9364C76.8444 172.824 77.8004 172.824 78.7844 172.824C79.7958 172.833 80.8016 172.674 81.7604 172.352C82.2288 172.174 82.6376 171.867 82.9404 171.468C83.213 171.064 83.3655 170.591 83.3804 170.104C83.3982 169.642 83.313 169.181 83.1311 168.756C82.9492 168.33 82.675 167.95 82.3284 167.644C81.6808 167.097 80.8837 166.757 80.0404 166.668C79.2982 166.613 78.5521 166.643 77.8164 166.756C76.7375 166.843 75.6674 167.017 74.6164 167.276C74.3336 167.353 74.0569 167.45 73.7884 167.568C73.6985 167.619 73.6049 167.663 73.5084 167.7C73.5084 167.7 73.5284 167.68 73.5724 167.652C73.6164 167.624 73.6804 167.58 73.7684 167.532C74.0324 167.395 74.3082 167.283 74.5924 167.196C75.6396 166.907 76.7105 166.711 77.7924 166.612C78.5387 166.486 79.2972 166.447 80.0524 166.496C80.9354 166.581 81.7719 166.931 82.4524 167.5C82.8227 167.824 83.1161 168.227 83.3112 168.679C83.5063 169.13 83.5983 169.62 83.5804 170.112C83.5661 170.639 83.4009 171.152 83.1044 171.588C82.7796 172.021 82.3384 172.352 81.8324 172.544C80.8524 172.876 79.8232 173.04 78.7884 173.028C77.7924 173.028 76.8404 173.028 75.9284 173.028L71.0964 172.972H67.8404H66.9524C66.8504 172.968 66.7487 172.955 66.6484 172.936Z" fill="#263238"/>
<path d="M56.7281 109.248C56.7281 109.784 53.5281 117.56 45.6001 123.86C37.6721 130.16 31.1161 137.536 31.2521 147.324C31.3881 157.112 37.4201 167.84 37.4201 167.84L43.6561 172.748L66.6481 172.936C66.6481 172.936 77.2401 170.388 78.5801 161.672C79.9201 152.956 77.2401 148.8 77.2401 148.8L77.6401 140.084C77.6401 140.084 83.9401 128.42 84.3441 124.668C84.7481 120.916 81.2601 107.236 81.2601 107.236L56.7281 109.248Z" fill="#FFBF45"/>
<path d="M69.6002 134.552C69.4088 135.402 69.3642 136.279 69.4682 137.144C69.6038 138.079 69.8845 138.987 70.3002 139.836C70.8062 140.878 71.4332 141.857 72.1682 142.752C72.9482 143.712 73.7682 144.576 74.4682 145.376C75.1682 146.176 75.8162 146.92 76.2962 147.58C76.6834 148.095 77.0323 148.638 77.3402 149.204C77.4522 149.404 77.5202 149.568 77.5722 149.676C77.6242 149.784 77.6442 149.844 77.6362 149.848C77.5005 149.655 77.3776 149.453 77.2682 149.244C76.9369 148.698 76.5736 148.171 76.1802 147.668C75.6882 147.024 75.0522 146.3 74.3282 145.508C73.6042 144.716 72.7922 143.852 72.0042 142.884C71.2613 141.973 70.6302 140.977 70.1242 139.916C69.7117 139.048 69.4415 138.118 69.3242 137.164C69.247 136.52 69.274 135.868 69.4042 135.232C69.4365 135.059 69.482 134.89 69.5402 134.724C69.5527 134.664 69.5729 134.607 69.6002 134.552Z" fill="#263238"/>
<path d="M78.2122 152.332C78.2536 152.408 78.2871 152.489 78.3122 152.572C78.3682 152.732 78.4642 152.972 78.5522 153.28C78.8146 154.156 79.0006 155.052 79.1082 155.96C79.2711 157.31 79.2711 158.674 79.1082 160.024C79.016 160.823 78.8595 161.614 78.6402 162.388C78.4136 163.216 78.1068 164.02 77.7242 164.788C77.3392 165.562 76.8811 166.297 76.3562 166.984C75.8611 167.618 75.3153 168.21 74.7242 168.756C73.7183 169.673 72.5984 170.457 71.3922 171.088C70.584 171.516 69.741 171.874 68.8722 172.16C68.5682 172.268 68.3242 172.328 68.1602 172.376C68.0787 172.404 67.9941 172.423 67.9082 172.432C67.9849 172.392 68.0653 172.36 68.1482 172.336C68.3082 172.272 68.5482 172.204 68.8482 172.084C69.6998 171.768 70.5273 171.392 71.3242 170.956C72.508 170.315 73.6071 169.529 74.5962 168.616C75.1737 168.072 75.7086 167.485 76.1962 166.86C76.7095 166.182 77.1582 165.458 77.5362 164.696C77.9152 163.934 78.2193 163.137 78.4442 162.316C78.6635 161.558 78.8226 160.783 78.9202 160C79.0924 158.664 79.1058 157.312 78.9602 155.972C78.8702 155.068 78.707 154.173 78.4722 153.296C78.4002 152.984 78.3162 152.748 78.2722 152.584C78.246 152.502 78.2259 152.417 78.2122 152.332Z" fill="#263238"/>
<path d="M44.0573 172.732C43.8576 172.665 43.6636 172.582 43.4773 172.484C43.2515 172.382 43.0312 172.269 42.8173 172.144C42.5653 172 42.2693 171.848 41.9693 171.64C41.6693 171.432 41.3253 171.24 40.9853 170.964C40.6453 170.688 40.2893 170.412 39.9173 170.104C38.3401 168.716 37.027 167.055 36.0413 165.2C35.8253 164.768 35.6133 164.36 35.4533 163.96C35.2933 163.56 35.1413 163.192 35.0213 162.848C34.9013 162.504 34.8133 162.184 34.7293 161.908C34.6585 161.67 34.5998 161.428 34.5533 161.184C34.5002 160.981 34.4641 160.773 34.4453 160.564C34.5264 160.759 34.5893 160.961 34.6333 161.168C34.6813 161.364 34.7493 161.604 34.8413 161.876C34.9333 162.148 35.0213 162.464 35.1613 162.8C35.3013 163.136 35.4293 163.508 35.6133 163.892C35.7973 164.276 36.0133 164.692 36.2093 165.092C36.712 166 37.2844 166.868 37.9213 167.688C38.569 168.497 39.2792 169.254 40.0453 169.952C40.4093 170.264 40.7453 170.568 41.0893 170.816C41.4333 171.064 41.7493 171.308 42.0493 171.512C42.3493 171.716 42.6293 171.88 42.8733 172.036C43.1173 172.192 43.3333 172.308 43.5133 172.404C43.7043 172.496 43.8864 172.606 44.0573 172.732Z" fill="#263238"/>
<path d="M54.7442 145.116C54.6026 145.04 54.4686 144.95 54.3442 144.848C54.1002 144.664 53.7522 144.38 53.3322 144.004C52.2046 142.982 51.204 141.829 50.3522 140.568L50.5322 140.484L51.3002 142.952L51.8802 144.8L51.9722 145.104L51.7202 144.912C50.3841 143.88 49.346 142.512 48.7122 140.948C48.5293 140.493 48.3848 140.023 48.2802 139.544C48.2442 139.376 48.2282 139.244 48.2122 139.144C48.1962 139.044 48.2122 139.008 48.2122 139.004C48.2703 139.17 48.3184 139.34 48.3562 139.512C48.486 139.98 48.6491 140.439 48.8442 140.884C49.5007 142.404 50.5364 143.731 51.8522 144.736L51.6922 144.848C51.5082 144.256 51.3175 143.641 51.1202 143.004C50.8522 142.14 50.5962 141.304 50.3562 140.536L50.1562 139.876L50.5362 140.448C51.3717 141.703 52.3429 142.862 53.4322 143.904C53.8322 144.304 54.1722 144.588 54.4042 144.788C54.5269 144.887 54.6407 144.997 54.7442 145.116Z" fill="#263238"/>
<g opacity="0.3">
<path d="M69.4045 135.044C69.4605 134.644 70.1005 134.644 70.3205 134.992C70.4856 135.352 70.5318 135.756 70.4525 136.144C70.3165 138.448 71.7525 140.544 73.2525 142.292C74.7525 144.04 76.4125 145.836 76.8925 148.092C75.6925 146.712 74.2845 145.548 72.9685 144.288C71.6525 143.028 70.4125 141.632 69.6965 139.956C68.9805 138.28 68.8445 136.276 69.6965 134.672" fill="black"/>
</g>
<g opacity="0.3">
<path d="M69.2012 172.02C71.0412 172.088 72.9412 171.904 74.5772 171.056C76.2132 170.208 77.5372 168.604 77.6572 166.768L76.2772 166.828C74.5088 169.136 72.1114 170.885 69.3732 171.864" fill="black"/>
</g>
<path d="M72.1969 77.944C72.1969 77.944 62.1969 79.496 60.0609 80.344C57.9249 81.192 49.1729 85.72 47.7969 90.032C47.7969 90.032 47.1129 94.892 49.2609 100.872C50.0409 103.052 56.3889 110.428 57.8969 111.272C59.4049 112.116 81.4969 108.192 81.4969 108.192C82.8249 106.392 86.6449 100.136 86.6129 95.448C86.5729 89.564 84.4649 82.948 84.4649 82.948L72.1969 77.944Z" fill="#FFBF45"/>
<path d="M79.8967 67.784C79.6807 67.748 77.0247 67.784 75.0047 72.356C73.7659 75.1455 72.3344 77.8453 70.7207 80.436L84.5207 83.636C84.5207 83.636 83.7487 76.18 82.9847 73.576C82.2207 70.972 81.4407 68.036 79.8967 67.784Z" fill="#FFBF45"/>
<g opacity="0.6">
<path d="M75.6321 96.16C71.1721 94.412 66.0321 95.188 61.6841 97.164C59.2561 98.264 56.8841 99.856 55.7881 102.292C54.0161 106.292 56.4241 111.024 59.7881 113.792C63.1521 116.56 67.3881 118.06 71.0361 120.468C74.6841 122.876 77.9121 126.792 77.4361 131.132L77.6521 140.052C78.0121 139.384 83.9481 128.308 84.3401 124.668C84.6801 121.468 82.1961 111.048 81.4601 108.052C81.7801 107.652 82.2841 106.816 82.8841 106.024C82.9521 101.7 79.7201 97.768 75.6321 96.16Z" fill="white"/>
</g>
<path d="M71.0161 94.448C71.044 94.3479 71.0498 94.243 71.0331 94.1405C71.0164 94.038 70.9776 93.9403 70.9193 93.8543C70.8611 93.7683 70.7849 93.696 70.6959 93.6424C70.6069 93.5888 70.5074 93.5552 70.4041 93.544C69.271 93.4023 68.1206 93.561 67.0681 94.004C66.9495 94.0378 66.8395 94.0967 66.7456 94.1768C66.6518 94.2568 66.5762 94.3561 66.5241 94.468C66.5014 94.5935 66.51 94.7226 66.549 94.844C66.5881 94.9654 66.6565 95.0753 66.7481 95.164C67.0177 95.4881 67.3646 95.7391 67.7568 95.8937C68.149 96.0483 68.5738 96.1016 68.992 96.0485C69.4102 95.9955 69.8084 95.8379 70.1496 95.5903C70.4908 95.3427 70.764 95.0131 70.9441 94.632C70.9723 94.5723 70.9963 94.5108 71.0161 94.448Z" fill="#263238"/>
<path d="M71.3678 99.424C71.2264 99.6208 71.0477 99.7878 70.8418 99.9154C70.6359 100.043 70.4069 100.129 70.1678 100.168C69.9367 100.243 69.693 100.27 69.4512 100.249C69.2094 100.227 68.9743 100.158 68.7598 100.044C69.2145 100.066 69.6703 100.041 70.1198 99.968C70.5533 99.8299 70.9715 99.6476 71.3678 99.424Z" fill="#263238"/>
<path d="M48.048 90.944C48.048 90.944 43.34 74.628 45.348 73.252C47.356 71.876 49.204 73.504 49.204 73.504L59.6 81.392L48.048 90.944Z" fill="#FFBF45"/>
<g opacity="0.6">
<path d="M49.3481 87.648C51.1253 85.1861 53.4813 83.1997 56.2081 81.864L49.0681 76.264C48.9248 76.1145 48.7509 75.9978 48.5582 75.9219C48.3656 75.8459 48.1588 75.8125 47.9521 75.824C47.7657 75.8892 47.6 76.0028 47.472 76.1533C47.3441 76.3037 47.2585 76.4855 47.2241 76.68C46.9601 77.668 47.2241 79.272 47.4321 80.28C48.0081 82.916 48.6321 85.444 49.3481 87.664" fill="white"/>
</g>
<g opacity="0.6">
<path d="M82.1558 81.504C79.6181 80.0507 76.7628 79.2417 73.8398 79.148C75.1892 76.564 76.5358 73.98 77.8798 71.396C78.0638 71.04 78.2998 70.648 78.6798 70.568C78.8687 70.5511 79.0587 70.5848 79.2302 70.6656C79.4017 70.7465 79.5486 70.8715 79.6558 71.028C80.2838 71.792 80.6918 73.3 80.8998 74.268C81.4398 76.808 81.9038 79.268 82.1478 81.504" fill="white"/>
</g>
<path d="M83.5084 104.772C83.4833 104.856 83.4512 104.937 83.4124 105.016C83.3324 105.192 83.2284 105.416 83.0964 105.7C82.6864 106.53 82.1874 107.313 81.6084 108.036C80.7263 109.098 79.6497 109.982 78.4364 110.64C78.0924 110.816 77.7284 110.984 77.3524 111.136C76.9605 111.293 76.5598 111.426 76.1524 111.536C75.7371 111.644 75.3166 111.731 74.8924 111.796C74.4519 111.854 74.0086 111.891 73.5644 111.904C72.7762 111.928 71.9878 111.867 71.2124 111.724L71.2724 111.528C72.3705 111.998 73.3623 112.685 74.1884 113.548L74.3364 113.704H74.1204C72.4173 113.713 70.7242 113.442 69.1084 112.904C68.6544 112.754 68.2084 112.58 67.7724 112.384C67.6204 112.316 67.5044 112.256 67.4284 112.22C67.3883 112.202 67.3507 112.179 67.3164 112.152C67.4786 112.202 67.6376 112.262 67.7924 112.332C68.1004 112.452 68.5564 112.62 69.1404 112.8C70.7533 113.294 72.4336 113.533 74.1204 113.508L74.0524 113.664C73.2404 112.826 72.2677 112.161 71.1924 111.708L70.3004 111.332L71.2524 111.512C72.0135 111.651 72.7872 111.708 73.5604 111.684C74.0004 111.684 74.4364 111.624 74.8604 111.58C75.2783 111.519 75.6924 111.433 76.1004 111.324C76.4964 111.224 76.8864 111.101 77.2684 110.956C77.6364 110.808 77.9964 110.644 78.3364 110.472C79.5333 109.832 80.6007 108.974 81.4844 107.944C82.0665 107.237 82.5783 106.475 83.0124 105.668C83.1564 105.396 83.2724 105.176 83.3604 105.004C83.4022 104.922 83.4518 104.844 83.5084 104.772Z" fill="#263238"/>
<path d="M77.4846 129.92C77.5216 130.072 77.543 130.228 77.5486 130.384C77.5766 130.684 77.6046 131.12 77.6366 131.656C77.6966 132.732 77.7486 134.216 77.7726 135.856C77.7966 137.496 77.7726 138.98 77.7726 140.056C77.7726 140.592 77.7406 141.028 77.7206 141.328C77.7221 141.486 77.7046 141.643 77.6686 141.796C77.6399 141.642 77.6292 141.485 77.6366 141.328C77.6366 140.984 77.6366 140.556 77.6366 140.056C77.6366 138.932 77.6086 137.472 77.5926 135.856C77.5766 134.24 77.5366 132.784 77.5166 131.664C77.5166 131.16 77.5166 130.736 77.4926 130.388C77.4717 130.233 77.469 130.076 77.4846 129.92Z" fill="#263238"/>
<path d="M62.2488 93.508C62.2488 93.8657 62.1427 94.2154 61.9438 94.5128C61.745 94.8103 61.4624 95.042 61.1318 95.1787C60.8012 95.3154 60.4374 95.351 60.0866 95.2809C59.7358 95.2108 59.4136 95.0382 59.161 94.785C58.9083 94.5317 58.7364 94.2092 58.6671 93.8582C58.5978 93.5072 58.6341 93.1436 58.7716 92.8133C58.909 92.483 59.1414 92.2009 59.4393 92.0027C59.7371 91.8045 60.0871 91.6992 60.4448 91.7C60.9236 91.701 61.3825 91.892 61.7207 92.2309C62.0589 92.5699 62.2488 93.0291 62.2488 93.508Z" fill="#263238"/>
<path d="M77.532 90.744C77.5328 91.1018 77.4274 91.4517 77.2293 91.7496C77.0311 92.0474 76.749 92.2798 76.4187 92.4172C76.0884 92.5547 75.7247 92.5911 75.3737 92.5217C75.0228 92.4524 74.7002 92.2806 74.447 92.0279C74.1937 91.7752 74.0211 91.453 73.9511 91.1022C73.881 90.7514 73.9165 90.3876 74.0533 90.057C74.19 89.7264 74.4217 89.4438 74.7191 89.245C75.0165 89.0461 75.3663 88.94 75.724 88.94C76.2028 88.94 76.6621 89.1299 77.001 89.4681C77.34 89.8063 77.531 90.2652 77.532 90.744Z" fill="#263238"/>
<path d="M74.54 94.908C74.5595 95.1154 74.546 95.3247 74.5 95.528C74.4146 96.0921 74.2232 96.635 73.936 97.128C73.8406 97.2967 73.7206 97.4504 73.58 97.584C73.4219 97.7209 73.2455 97.8353 73.056 97.924C72.6282 98.1235 72.1403 98.1521 71.692 98.004C71.4522 97.9343 71.2252 97.8263 71.02 97.684C70.8039 97.5481 70.5968 97.3985 70.4 97.236C69.9847 96.895 69.6102 96.5071 69.284 96.08L69.468 96.044L69.436 96.152C69.3069 96.668 69.073 97.1519 68.7489 97.5737C68.4248 97.9956 68.0174 98.3462 67.552 98.604C67.1321 98.8204 66.6576 98.908 66.188 98.856C65.787 98.8082 65.4016 98.6715 65.06 98.456C64.5763 98.1331 64.1793 97.6963 63.904 97.184C63.8317 97.0466 63.7676 96.905 63.712 96.76C63.676 96.66 63.66 96.604 63.668 96.604C63.676 96.604 63.768 96.804 63.976 97.144C64.2632 97.6308 64.6622 98.0421 65.14 98.344C65.4632 98.5474 65.8284 98.6746 66.208 98.716C66.6419 98.7563 67.0781 98.6702 67.464 98.468C67.9018 98.2174 68.2844 97.881 68.5889 97.4788C68.8934 97.0767 69.1135 96.6173 69.236 96.128L69.264 96.024L69.324 95.824L69.448 95.988C69.7665 96.3992 70.1286 96.7747 70.528 97.108C70.7175 97.2668 70.9165 97.4137 71.124 97.548C71.3123 97.6832 71.5218 97.7859 71.744 97.852C72.1247 97.9773 72.5368 97.9696 72.9125 97.8301C73.2883 97.6905 73.6054 97.4274 73.812 97.084C74.0995 96.6111 74.305 96.0932 74.42 95.552C74.508 95.128 74.524 94.908 74.54 94.908Z" fill="#263238"/>
<g opacity="0.6">
<path d="M66.6005 78.888L64.0645 79.368C64.2427 80.4248 64.6157 81.4394 65.1645 82.36C65.3565 82.684 65.6485 83.036 66.0245 83.008C66.1348 82.9943 66.2403 82.955 66.3327 82.8932C66.4251 82.8313 66.5017 82.7488 66.5565 82.652C66.6672 82.4584 66.7392 82.2451 66.7685 82.024C66.951 80.9795 66.8935 79.9071 66.6005 78.888Z" fill="white"/>
</g>
<path d="M89.9729 97.6C89.8002 97.5844 89.6298 97.5496 89.4649 97.496L88.1009 97.156C86.9489 96.872 85.3489 96.524 83.5609 96.236C81.7729 95.948 80.1449 95.792 78.9609 95.704L77.5609 95.604C77.3876 95.6008 77.2149 95.582 77.0449 95.548C77.2153 95.5193 77.3884 95.5099 77.5609 95.52C77.8929 95.52 78.3609 95.52 78.9689 95.556C82.069 95.7039 85.1435 96.1921 88.1369 97.012C88.7129 97.172 89.1729 97.308 89.4889 97.412C89.6564 97.4576 89.8186 97.5206 89.9729 97.6Z" fill="#263238"/>
<path d="M91.3556 94.328C91.1768 94.3534 90.9958 94.3601 90.8156 94.348H89.3516C88.1116 94.348 86.4036 94.348 84.5156 94.384C82.6276 94.42 80.9156 94.532 79.6836 94.608L78.2236 94.7C78.0439 94.7158 77.8632 94.7158 77.6836 94.7C77.8568 94.6491 78.0353 94.6182 78.2156 94.608C78.5596 94.564 79.0556 94.508 79.6756 94.448C80.9076 94.332 82.6196 94.216 84.5116 94.164C86.4036 94.112 88.1116 94.14 89.3556 94.192C89.9716 94.216 90.4756 94.244 90.8196 94.272C90.9996 94.2734 91.1791 94.2921 91.3556 94.328Z" fill="#263238"/>
<path d="M91.2005 102.268C91.0209 102.192 90.8483 102.101 90.6845 101.996C90.3605 101.804 89.8845 101.536 89.3005 101.196C87.7718 100.352 86.1989 99.591 84.5885 98.916C82.9728 98.2582 81.3239 97.6854 79.6484 97.2C79.0084 97.012 78.4845 96.868 78.1205 96.768C77.9303 96.7277 77.7442 96.6701 77.5645 96.596C77.7592 96.6084 77.9522 96.6406 78.1405 96.692C78.5085 96.764 79.0405 96.888 79.6885 97.06C83.0817 97.9645 86.3377 99.3221 89.3685 101.096C89.9485 101.436 90.4125 101.728 90.7205 101.936C90.8902 102.032 91.0509 102.143 91.2005 102.268Z" fill="#263238"/>
<path d="M59.653 99.952C59.5173 100.065 59.3698 100.163 59.213 100.244L58.001 100.992C56.961 101.62 55.537 102.508 54.001 103.548C52.465 104.588 51.113 105.584 50.145 106.316L48.977 107.2C48.8425 107.315 48.6964 107.415 48.541 107.5C48.6613 107.365 48.7954 107.243 48.941 107.136C49.197 106.912 49.577 106.596 50.049 106.212C50.997 105.448 52.341 104.432 53.881 103.388C55.421 102.344 56.861 101.472 57.921 100.876C58.453 100.576 58.885 100.34 59.189 100.188C59.3361 100.095 59.4914 100.016 59.653 99.952Z" fill="#263238"/>
<path d="M59.3692 98.54C59.3179 98.5796 59.2614 98.6119 59.2012 98.636L58.7012 98.872L56.8572 99.708C55.3012 100.416 53.1532 101.408 50.8092 102.548C48.4652 103.688 46.3572 104.764 44.8372 105.548L43.0372 106.48L42.5452 106.728C42.489 106.76 42.4284 106.785 42.3652 106.8C42.4136 106.757 42.4674 106.721 42.5252 106.692L42.9972 106.408C43.3972 106.168 44.0172 105.828 44.7692 105.42C46.2692 104.6 48.3692 103.504 50.7172 102.36C53.0652 101.216 55.2252 100.248 56.7972 99.56C57.5972 99.22 58.2252 98.956 58.6692 98.78L59.1812 98.58C59.2413 98.5566 59.3048 98.5431 59.3692 98.54Z" fill="#263238"/>
<path d="M57.1491 97.944C56.9417 98.0253 56.7276 98.0882 56.5091 98.132C56.1091 98.236 55.4971 98.392 54.7611 98.592C53.2891 98.992 51.2651 99.604 49.0851 100.416C46.9051 101.228 44.9731 102.096 43.5971 102.756C42.9091 103.088 42.3531 103.364 41.9731 103.556C41.7795 103.664 41.5775 103.756 41.3691 103.832C41.5486 103.701 41.7386 103.584 41.9371 103.484C42.3051 103.268 42.8491 102.976 43.5371 102.624C47.1027 100.819 50.8596 99.4195 54.7371 98.452C55.4811 98.268 56.0851 98.132 56.5051 98.052C56.7172 98.0017 56.9323 97.9656 57.1491 97.944Z" fill="#263238"/>
<path d="M78.6082 73.96C78.6523 74.0894 78.6805 74.2237 78.6922 74.36C78.7282 74.636 78.7682 75.032 78.7922 75.528C78.8529 76.8371 78.7589 78.1488 78.5122 79.436L78.4602 79.712L78.3202 79.464C78.2322 79.312 78.1402 79.144 78.0442 78.98L76.6162 76.44L76.7842 76.416C76.6068 77.1504 76.5036 77.9009 76.4762 78.656C76.4562 79.204 76.4762 79.52 76.4482 79.524C76.4239 79.4503 76.4105 79.3735 76.4082 79.296C76.3827 79.0836 76.3693 78.8699 76.3682 78.656C76.3569 77.8891 76.4375 77.1236 76.6082 76.376L76.6602 76.148L76.7762 76.352L78.2242 78.876L78.5002 79.364L78.3082 79.396C78.5517 78.1227 78.667 76.8282 78.6522 75.532C78.6402 74.564 78.5762 73.964 78.6082 73.96Z" fill="#263238"/>
<path d="M52.3999 82.884C51.8959 82.1265 51.317 81.4216 50.6719 80.78L50.8279 80.724C50.7559 81.404 50.6719 82.164 50.5839 82.976C50.5839 83.084 50.5599 83.192 50.5479 83.292L50.5079 83.668L50.3519 83.324C49.8119 82.124 49.3359 81.06 49.0039 80.284C48.8073 79.8738 48.6402 79.45 48.5039 79.016C48.7458 79.3988 48.9571 79.8 49.1359 80.216C49.4999 80.976 49.9959 82.04 50.5399 83.232L50.3439 83.264L50.3799 82.944C50.4719 82.144 50.5639 81.372 50.6439 80.696V80.508L50.7799 80.64C51.2586 81.1061 51.679 81.6286 52.0319 82.196C52.1883 82.4056 52.3124 82.6375 52.3999 82.884Z" fill="#263238"/>
<path d="M92.8003 38.688C92.0228 36.9406 90.7269 35.4744 89.0883 34.488C87.5208 33.4589 85.6697 32.9482 83.7963 33.028C82.214 33.1372 80.7114 33.7631 79.5197 34.8096C78.3279 35.8561 77.513 37.2651 77.2003 38.82C76.0927 37.7578 74.6757 37.0759 73.1547 36.8731C71.6336 36.6703 70.0874 36.9571 68.7403 37.692C67.1159 38.6274 65.826 40.0488 65.0523 41.756C64.1951 43.4665 63.885 45.3993 64.1643 47.292C64.5559 49.6919 65.7069 51.9028 67.4483 53.6C69.2923 55.308 71.7843 56.4 74.2123 57.04C78.2923 58.128 83.6243 59.42 83.6243 59.42C83.6243 59.42 86.6523 55.42 89.5203 52.308C91.2283 50.464 92.7523 48.212 93.3923 45.784C93.9614 43.4164 93.7538 40.9286 92.8003 38.688Z" fill="#FFBF45"/>
<path d="M131.68 54.956C131.976 54.012 131.976 53 131.68 52.056C131.425 51.113 130.881 50.2737 130.124 49.656C129.716 49.3469 129.249 49.1232 128.752 48.9981C128.255 48.8731 127.738 48.8492 127.232 48.928C126.629 49.0277 126.06 49.272 125.572 49.64C125.525 49.087 125.356 48.5514 125.076 48.072C124.816 47.6304 124.469 47.2459 124.057 46.9415C123.644 46.637 123.175 46.4188 122.676 46.3C121.725 46.1077 120.737 46.2182 119.852 46.616C118.934 46.9862 118.152 47.63 117.612 48.46C116.936 49.5327 116.626 50.796 116.728 52.06C116.91 53.3755 117.405 54.6281 118.172 55.712C119.372 57.532 121.012 59.864 121.012 59.864C121.012 59.864 123.564 59.344 125.74 59.124C127.064 59.0285 128.345 58.617 129.476 57.924C130.513 57.1992 131.286 56.1578 131.68 54.956Z" fill="#FFBF45"/>
</g>
<defs>
<clipPath id="clip0_549_879">
<rect width="200" height="200" fill="white"/>
</clipPath>
</defs>
</svg>
