<svg width="22" height="22" viewBox="0 0 22 22" fill="none" xmlns="http://www.w3.org/2000/svg">
<path d="M3.7923 11L10.5396 5.09607C11.1535 4.55896 11.1535 3.68884 10.5396 3.15173C9.92578 2.61462 8.93136 2.61462 8.31752 3.15173L0.460379 10.0267C-0.15346 10.5638 -0.15346 11.434 0.460379 11.9711L8.31752 18.8461C8.62199 19.1168 9.02466 19.25 9.42734 19.25C9.83002 19.25 10.2317 19.1157 10.5381 18.8471C11.152 18.31 11.152 17.4399 10.5381 16.9028L3.7923 11ZM13.2233 11L19.9706 5.09607C20.5845 4.55896 20.5845 3.68884 19.9706 3.15173C19.3568 2.61462 18.3624 2.61462 17.7485 3.15173L9.89141 10.0267C9.27757 10.5638 9.27757 11.434 9.89141 11.9711L17.7485 18.8461C18.0506 19.1168 18.4532 19.25 18.8559 19.25C19.2586 19.25 19.6603 19.1157 19.9667 18.8471C20.5806 18.31 20.5806 17.4399 19.9667 16.9028L13.2233 11Z" fill="#FFBF45"/>
</svg>
