<svg width="519" height="552" viewBox="0 0 519 552" fill="none" xmlns="http://www.w3.org/2000/svg">
<path d="M22.5554 481.89L0.0507812 512.468L37.9468 540.691C40.4515 536.931 26.2123 515.025 26.2123 515.025L41.4408 496.026L22.5554 481.89Z" fill="#455A64"/>
<path d="M15.766 504.673C15.3203 504.511 14.8304 504.52 14.3909 504.698C13.9513 504.876 13.5935 505.211 13.3865 505.638C13.2105 506.08 13.2097 506.573 13.3842 507.015C13.5588 507.458 13.8956 507.817 14.3258 508.019C14.798 508.186 15.3149 508.172 15.7773 507.98C16.2397 507.787 16.6148 507.431 16.8305 506.979C16.9688 506.499 16.9156 505.984 16.682 505.542C16.4485 505.1 16.0527 504.766 15.5781 504.611" fill="white"/>
<path d="M0 512.543L2.39198 509.26L37.7958 537.783C37.7958 537.783 38.9229 539.789 37.7958 540.829L0 512.543Z" fill="#263238"/>
<path d="M27.0399 515.301C26.9021 515.489 25.9128 514.887 24.5352 514.799C23.1576 514.712 22.1181 515.138 22.0305 514.937C21.9428 514.737 22.9948 513.872 24.6228 513.997C26.2509 514.123 27.1401 515.163 27.0399 515.301Z" fill="#263238"/>
<path d="M29.7302 519.912C29.63 520.125 28.6031 519.837 27.3883 520.15C26.1735 520.464 25.3845 521.166 25.1967 521.015C25.0088 520.865 25.6851 519.762 27.2004 519.373C28.7158 518.985 29.8554 519.737 29.7302 519.912Z" fill="#263238"/>
<path d="M28.4411 526.354C28.2407 526.266 28.6791 525.101 29.9064 524.487C31.1337 523.872 32.2983 524.073 32.2608 524.286C32.2232 524.499 31.2839 524.637 30.2946 525.201C29.3052 525.765 28.6415 526.467 28.4411 526.354Z" fill="#263238"/>
<path d="M29.9691 510.588C29.7562 510.701 29.105 509.811 28.0029 509.11C26.9009 508.408 25.8489 508.12 25.8614 507.856C25.874 507.593 27.1138 507.543 28.4413 508.395C29.7688 509.247 30.1695 510.513 29.9691 510.588Z" fill="#263238"/>
<path d="M114.176 353.886C114.852 357.72 115.929 390.342 116.618 407.549C117.307 424.755 115.591 433.215 113.625 437.074C111.659 440.934 37.5075 495.612 31.8594 508.709L13.0742 493.557C13.0742 493.557 40.6258 444.067 52.3729 435.069C64.1199 426.071 86.7247 417.812 86.7247 417.812L80.3002 323.583L111.095 321.903L114.176 353.886Z" fill="#263238"/>
<path d="M45.2612 512.13L44.9355 550.065L92.1615 550.717C91.9486 546.205 67.6406 536.793 67.6406 536.793L68.8929 512.468L45.2612 512.13Z" fill="#455A64"/>
<path d="M53.0608 534.6C52.6052 534.732 52.214 535.027 51.9622 535.43C51.7104 535.832 51.6155 536.313 51.6958 536.781C51.812 537.242 52.0995 537.641 52.4998 537.897C52.9 538.153 53.3829 538.247 53.8498 538.159C54.3311 538.016 54.7427 537.701 55.0061 537.273C55.2694 536.845 55.3661 536.335 55.2775 535.841C55.1097 535.372 54.7662 534.987 54.3198 534.767C53.8734 534.547 53.359 534.51 52.8855 534.663" fill="white"/>
<path d="M44.9219 550.203V546.13L90.3194 548.486C90.3194 548.486 92.3983 549.451 92.1353 550.93L44.9219 550.203Z" fill="#263238"/>
<path d="M68.3667 536.618C68.3667 536.856 67.2021 536.944 66.0624 537.671C64.9228 538.397 64.2966 539.35 64.0837 539.262C63.8708 539.174 64.234 537.833 65.6366 536.981C67.0392 536.129 68.4669 536.405 68.3667 536.618Z" fill="#263238"/>
<path d="M73.3737 538.786C73.3737 539.011 72.4094 539.387 71.6204 540.352C70.8314 541.317 70.581 542.358 70.3681 542.332C70.1552 542.307 70.0049 541.017 71.0193 539.826C72.0337 538.635 73.3737 538.523 73.3737 538.786Z" fill="#263238"/>
<path d="M76.0672 544.714C75.8543 544.714 75.5537 543.598 76.1548 542.345C76.756 541.092 77.858 540.603 77.9457 540.791C78.0334 540.979 77.3696 541.656 76.8812 542.696C76.3928 543.736 76.2926 544.689 76.0672 544.714Z" fill="#263238"/>
<path d="M68.0658 531.041C67.9656 531.254 66.9136 530.916 65.5611 531.041C64.2085 531.166 63.2317 531.505 63.0564 531.304C62.881 531.104 63.9205 530.302 65.4609 530.239C67.0013 530.176 68.1785 530.866 68.0658 531.041Z" fill="#263238"/>
<path d="M117.583 318.006C117.583 320.224 121.177 376.381 102.83 417.01C102.83 417.01 96.4807 429.718 95.3161 435.27C94.1514 440.822 70.4194 532.908 70.4194 532.908L42.993 531.906C42.993 531.906 38.6098 485.775 42.993 459.069C47.3762 432.362 55.5165 435.495 55.5165 418.251C55.5165 401.007 51.4213 365.252 51.4213 365.252C51.4213 365.252 45.4351 355.49 43.3938 336.554C41.7281 321.177 48.9667 304.697 48.9667 304.697L56.1176 292.027L116.618 288.856L117.583 318.006Z" fill="#263238"/>
<path d="M117.583 318.006C117.583 318.006 117.583 317.354 117.583 316.088C117.583 314.823 117.508 312.943 117.458 310.474C117.345 305.524 117.158 298.23 116.932 288.806V288.668H116.782L56.2811 291.751H56.1558L56.0807 291.864C53.864 295.799 51.4219 300.097 48.9173 304.534C47.0544 309.031 45.6 313.686 44.5716 318.445C43.4355 323.454 42.9264 328.586 43.0563 333.721C43.4375 339.084 44.2754 344.405 45.561 349.625C46.8011 355.106 48.7504 360.401 51.3593 365.378V365.252C52.3988 374.601 53.3631 384.289 54.1771 394.264C54.5779 399.277 54.9285 404.29 55.179 409.441C55.3042 411.947 55.4044 414.579 55.4169 417.173C55.4169 418.427 55.4169 419.767 55.3418 421.058C55.2526 422.353 55.0938 423.641 54.8659 424.918C54.3533 427.491 53.4449 429.968 52.1734 432.262C50.921 434.606 49.6687 436.924 48.4163 439.368C46.1482 444.327 44.4954 449.546 43.4946 454.908C41.3155 465.686 40.8772 476.889 40.752 488.181C40.752 503.082 41.4533 517.719 42.6806 531.868V532.169H42.9686L70.395 533.171H70.658L70.7206 532.908C78.673 502.067 86.0869 473.242 92.6241 447.326L94.9911 437.739C95.4044 436.147 95.6674 434.568 96.1558 433.064C96.6442 431.56 97.1952 430.069 97.7713 428.615C98.9485 425.708 100.276 422.888 101.528 420.143L102.505 418.101C102.852 417.433 103.161 416.747 103.432 416.045C103.995 414.654 104.559 413.288 105.123 411.922C109.017 401.815 111.916 391.351 113.776 380.679C116.458 365.477 117.841 350.074 117.909 334.636C117.984 323.833 117.546 317.968 117.546 317.968C117.546 317.968 117.546 318.332 117.546 319.046C117.546 319.76 117.546 320.851 117.621 322.254C117.696 325.074 117.746 329.235 117.621 334.636C117.505 350.06 116.11 365.449 113.451 380.642C111.547 391.279 108.611 401.705 104.684 411.772L103.006 415.87C102.731 416.572 102.417 417.236 102.079 417.913C101.741 418.589 101.416 419.279 101.09 419.968C99.8377 422.713 98.5102 425.532 97.333 428.452C96.7444 429.919 96.1808 431.41 95.6924 432.939C95.204 434.468 94.9159 436.084 94.5152 437.638C93.7262 440.797 92.9372 443.98 92.1232 447.226C85.4732 473.117 78.0719 501.941 70.1445 532.783L70.4701 532.545L43.0437 531.53L43.3694 531.831C42.117 517.707 41.3907 503.082 41.4407 488.206C41.566 476.927 42.0043 465.773 44.1709 455.071C45.1686 449.759 46.8043 444.587 49.0425 439.669C50.1696 437.25 51.5472 434.957 52.7995 432.575C54.0627 430.219 54.9581 427.683 55.4545 425.056C55.692 423.751 55.855 422.433 55.9429 421.108C55.9429 419.855 56.0682 418.477 56.0181 417.186C56.0181 414.579 55.9053 411.985 55.7801 409.416C55.5296 404.278 55.1665 399.215 54.7532 394.227C53.9183 384.201 52.9707 374.522 51.9104 365.19V365.115C49.3005 360.202 47.3428 354.969 46.087 349.549C44.8087 344.366 43.9708 339.084 43.5823 333.759C43.4474 328.671 43.9438 323.586 45.06 318.62C46.0691 313.909 47.4897 309.296 49.3055 304.835L56.4439 292.152L56.2435 292.277L116.744 289.006L116.582 288.868C116.882 298.28 117.108 305.574 117.258 310.524C117.345 313.031 117.408 314.86 117.458 316.139C117.508 317.417 117.583 318.006 117.583 318.006Z" fill="#455A64"/>
<path d="M97.9097 203.01C97.9097 203.01 81.6292 200.128 83.1445 221.094C84.0963 233.627 87.7782 255.132 89.8195 268.855C90.5208 273.604 92.0737 282.101 98.348 287.089L143.307 318.219L157.496 301.238L117.346 262.977L111.084 225.13L97.9097 203.01Z" fill="#455A64"/>
<path d="M99.8234 127.441C102.404 129.52 104.446 132.192 105.775 135.228C107.105 138.265 107.684 141.578 107.463 144.886C107.212 148.094 106.323 151.741 108.414 154.185C110.506 156.629 114.513 156.541 116.492 159.022C118.809 161.955 116.868 166.316 117.744 169.963C118.191 171.666 119.229 173.155 120.672 174.163C122.115 175.171 123.87 175.632 125.622 175.464C121.512 178.83 116.555 180.998 111.295 181.731L107.187 176.605C108.715 178.41 108.302 181.279 106.836 183.122C105.245 184.836 103.192 186.055 100.925 186.631C95.5302 188.292 89.8248 188.684 84.2532 187.778C78.6816 186.871 73.3943 184.69 68.8027 181.405" fill="#263238"/>
<path d="M39.6747 155.726C40.4762 153.22 41.8287 151.002 42.3672 148.483C43.5194 143.056 40.877 136.94 43.5069 132.053C45.3854 128.582 49.3679 126.877 53.15 125.712C56.932 124.546 60.9646 123.569 63.7824 120.799C65.8362 118.769 67.0134 115.962 69.0673 113.931C71.9978 111.024 76.3309 110.034 80.4386 109.783C84.6802 109.373 88.9557 110.068 92.8493 111.801C94.7828 112.684 96.4817 114.009 97.8087 115.67C99.1358 117.331 100.054 119.281 100.489 121.363C100.814 123.393 100.564 125.536 101.215 127.504C101.916 129.659 103.607 131.339 104.659 133.356C105.713 135.523 106.017 137.979 105.526 140.338C105.034 142.697 103.773 144.825 101.941 146.39L72.912 183.911C66.813 186.217 52.0354 183.435 47.3265 178.898C42.6177 174.362 37.6584 161.93 39.6747 155.726Z" fill="#263238"/>
<path d="M101.178 141.628C99.9254 133.106 93.5009 123.042 85.0476 124.596L58.9487 133.369C56.444 133.845 58.2223 138.043 58.4728 140.637L64.1459 199.539C64.1459 199.539 60.6143 202.045 59.3619 201.569C59.2906 201.544 59.2133 201.542 59.1408 201.563C59.0682 201.584 59.0041 201.627 58.9572 201.687C58.9104 201.746 58.8831 201.818 58.8794 201.894C58.8756 201.969 58.8954 202.044 58.9361 202.108C62.1046 206.682 76.8697 226.571 92.1609 220.468C95.5673 219.102 91.7977 208.362 92.1609 204.389L91.71 194.225C91.3719 189.037 91.2091 186.906 91.2091 186.957C91.2091 187.007 102.004 184.3 103.169 169.85C103.758 162.694 102.505 151.089 101.178 141.628Z" fill="#FFBF9D"/>
<path d="M99.3613 154.736C99.4002 155.213 99.2519 155.687 98.9481 156.056C98.6442 156.426 98.2085 156.663 97.7333 156.716C97.5018 156.754 97.2652 156.744 97.0375 156.688C96.8098 156.632 96.5956 156.531 96.4076 156.391C96.2196 156.251 96.0616 156.074 95.943 155.872C95.8244 155.669 95.7475 155.445 95.717 155.212C95.6782 154.735 95.8264 154.262 96.1303 153.892C96.4342 153.523 96.8698 153.286 97.3451 153.232C97.5766 153.195 97.8132 153.205 98.0409 153.261C98.2686 153.317 98.4828 153.418 98.6708 153.558C98.8588 153.698 99.0167 153.875 99.1354 154.077C99.254 154.279 99.3308 154.504 99.3613 154.736Z" fill="#263238"/>
<path d="M81.5773 155.852C81.6196 156.327 81.4743 156.801 81.1724 157.171C80.8705 157.541 80.4361 157.778 79.9618 157.832C79.7305 157.867 79.4945 157.856 79.2675 157.8C79.0404 157.743 78.8269 157.642 78.6393 157.502C78.4517 157.362 78.2938 157.186 78.1747 156.984C78.0556 156.783 77.9777 156.56 77.9455 156.328C77.9067 155.851 78.0549 155.377 78.3588 155.008C78.6627 154.638 79.0983 154.401 79.5736 154.348C79.8044 154.311 80.0403 154.32 80.2672 154.376C80.4941 154.432 80.7075 154.534 80.8945 154.674C81.0815 154.814 81.2383 154.991 81.3556 155.193C81.4729 155.396 81.5484 155.619 81.5773 155.852Z" fill="#263238"/>
<path d="M100.012 148.696C99.8119 149.034 98.1087 147.956 95.9797 148.27C93.8507 148.583 92.4856 150.037 92.2226 149.773C91.9597 149.51 92.2226 149.072 92.8363 148.407C93.6068 147.542 94.6604 146.979 95.808 146.821C96.9555 146.662 98.122 146.918 99.098 147.543C99.7993 148.031 100.112 148.545 100.012 148.696Z" fill="#263238"/>
<path d="M80.8888 150.287C80.6384 150.601 78.9727 149.385 76.6809 149.485C74.3892 149.585 72.7611 150.876 72.4981 150.588C72.2351 150.3 72.6108 149.911 73.3247 149.335C74.2617 148.561 75.429 148.12 76.6434 148.082C77.852 148.034 79.0419 148.391 80.0247 149.097C80.7385 149.611 81.0015 150.137 80.8888 150.287Z" fill="#263238"/>
<path d="M88.0663 163.784C89.0775 163.371 90.1386 163.093 91.2222 162.957C91.7107 162.87 92.1865 162.732 92.2366 162.381C92.2432 161.857 92.0855 161.344 91.7858 160.915C91.2222 159.737 90.6336 158.496 90.0075 157.155C87.5028 151.854 85.6869 147.493 85.8998 147.392C86.1127 147.292 88.3043 151.503 90.7839 156.792C91.385 158.107 91.9611 159.298 92.4996 160.551C92.8659 161.133 93.0125 161.826 92.9129 162.506C92.8555 162.69 92.7568 162.857 92.6243 162.996C92.4919 163.135 92.3292 163.242 92.149 163.308C91.8776 163.401 91.5958 163.46 91.3099 163.484C90.2444 163.712 89.1556 163.813 88.0663 163.784Z" fill="#263238"/>
<path d="M91.2092 186.982C84.5027 187.598 77.757 186.34 71.7227 183.347C71.7227 183.347 77.2956 192.997 91.4596 190.566L91.2092 186.982Z" fill="#FF9A6C"/>
<path d="M82.0667 169.524C82.2901 169.029 82.6346 168.598 83.0685 168.271C83.5996 168.018 84.2025 167.961 84.7717 168.108C85.6175 168.232 86.4001 168.628 87.0009 169.236C87.2958 169.543 87.5035 169.923 87.6025 170.337C87.7016 170.752 87.6885 171.185 87.5645 171.592C87.339 172.419 86.1117 172.845 85.2727 173.021C84.4034 173.148 83.5172 172.966 82.768 172.507C82.4421 172.358 82.1576 172.132 81.9393 171.848C81.7209 171.564 81.5755 171.231 81.5156 170.878C81.5712 170.384 81.7619 169.916 82.0667 169.524Z" fill="#FF9A6C"/>
<path d="M82.4677 166.755C82.7808 166.755 82.9561 168.848 84.8973 170.226C86.8384 171.605 89.0926 171.191 89.1302 171.479C89.1678 171.768 88.6668 171.93 87.7025 172.031C86.4513 172.145 85.1999 171.812 84.1709 171.091C83.178 170.405 82.4943 169.356 82.2673 168.171C82.1421 167.306 82.3174 166.755 82.4677 166.755Z" fill="#263238"/>
<path d="M80.7138 142.58C80.551 143.119 78.5723 143.019 76.2805 143.482C73.9887 143.946 72.1728 144.735 71.8346 144.247C71.6844 144.034 71.9599 143.507 72.6737 142.931C73.6299 142.218 74.7369 141.734 75.9093 141.517C77.0818 141.3 78.2885 141.355 79.4364 141.678C80.313 141.928 80.7764 142.317 80.7138 142.58Z" fill="#263238"/>
<path d="M98.7983 141.515C98.4351 141.991 96.8572 141.653 95.0413 141.778C93.2254 141.903 91.6224 142.342 91.2216 141.903C91.0463 141.69 91.2216 141.214 91.9104 140.738C92.816 140.141 93.8695 139.806 94.9536 139.773C96.0309 139.695 97.108 139.926 98.0594 140.437C98.7106 140.813 98.9611 141.264 98.7983 141.515Z" fill="#263238"/>
<path d="M53.1723 135.424C54.4247 133.394 56.8542 132.354 59.1085 131.489C68.8439 127.727 78.9927 125.14 89.3401 123.782C90.5924 125.9 89.4403 128.795 87.4991 130.336C85.558 131.877 83.0533 132.492 80.7365 133.356C78.4196 134.221 76.0277 135.574 75.0633 137.868C74.099 140.161 74.9131 143.182 74.0114 145.663C72.471 149.949 66.4973 151.327 65.007 155.601C63.8549 158.847 65.7334 162.293 66.2594 165.702C66.4999 167.432 66.3689 169.193 65.8751 170.869C65.3813 172.544 64.5361 174.095 63.3959 175.417C62.2556 176.74 60.8466 177.804 59.2629 178.538C57.6792 179.272 55.9572 179.66 54.2118 179.675C53.5105 167.402 52.805 155.137 52.0953 142.881C51.8824 140.324 51.7822 137.567 53.1723 135.424Z" fill="#263238"/>
<path d="M28.4799 166.416C30.421 164.674 32.8506 163.17 33.6145 160.689C34.7416 157.067 31.8362 152.819 33.7147 149.523C35.4179 146.515 40.4398 146.678 42.0303 143.608C43.2826 141.201 41.8424 139.083 42.3058 136.978C42.7692 134.873 45.7748 133.03 47.9038 133.281L64.6101 157.556C66.163 165.702 67.7284 170.088 65.9877 174.8C64.8363 177.337 63.967 179.993 63.3953 182.721C63.0196 185.478 63.7334 188.598 65.9751 190.24C55.9564 191.029 46.5888 185.791 37.9226 180.715L28.793 175.352C27.7936 174.873 26.9318 174.149 26.2883 173.246C24.9232 171.016 26.5513 168.146 28.4799 166.416Z" fill="#263238"/>
<path d="M37.709 178.247C38.0585 178.359 38.42 178.431 38.786 178.46C39.8307 178.56 40.8848 178.483 41.9044 178.234C43.5318 177.844 45.0295 177.036 46.25 175.891C47.8621 174.338 48.8735 172.265 49.1053 170.038C49.2559 168.747 49.1452 167.438 48.7797 166.191C48.3307 164.861 47.7074 163.597 46.9263 162.431C46.098 161.248 45.4521 159.946 45.0102 158.571C44.7755 157.868 44.702 157.121 44.7952 156.385C44.8884 155.65 45.146 154.945 45.5487 154.323C46.4504 153.069 48.141 152.806 49.719 152.18C50.5712 151.873 51.3126 151.319 51.848 150.588C52.341 149.806 52.5815 148.892 52.5368 147.969C52.3202 146.199 51.9386 144.454 51.3971 142.755C51.2049 141.931 51.2049 141.073 51.3971 140.249C51.6177 139.418 52.1286 138.693 52.8373 138.206C54.3612 137.327 56.0877 136.861 57.8467 136.853C59.6672 136.793 61.4425 136.271 63.0064 135.336C64.5281 134.408 65.7635 133.076 66.5756 131.489C67.2421 129.965 67.6648 128.345 67.8279 126.689C68.0017 125.156 68.3289 123.645 68.8048 122.178C69.3322 120.843 70.1344 119.635 71.1592 118.631C73.0493 116.836 75.4895 115.732 78.0846 115.498C80.2484 115.313 82.4202 115.747 84.3464 116.751C85.7951 117.493 87.101 118.486 88.2036 119.684C89.125 120.729 89.9234 121.877 90.5831 123.105C90.5831 123.105 90.5831 123.017 90.4954 122.842C90.3926 122.593 90.2755 122.35 90.1447 122.115C89.6666 121.205 89.0822 120.355 88.404 119.583C87.3023 118.337 85.9877 117.298 84.5217 116.513C82.5753 115.442 80.3635 114.951 78.1473 115.097C75.4276 115.296 72.8588 116.424 70.8711 118.293C69.776 119.351 68.9217 120.633 68.3664 122.052C67.8699 123.547 67.5258 125.088 67.3395 126.652C67.1657 128.253 66.7432 129.817 66.0872 131.288C65.3235 132.768 64.1719 134.011 62.7559 134.885C61.2638 135.761 59.5758 136.248 57.8467 136.301C55.9622 136.297 54.1112 136.799 52.4867 137.755C51.6739 138.308 51.0872 139.136 50.8336 140.086C50.6141 141.013 50.6141 141.979 50.8336 142.906C51.3639 144.572 51.7412 146.284 51.9607 148.019C52.0123 148.825 51.8109 149.627 51.3846 150.312C50.9008 150.948 50.2443 151.431 49.4936 151.703C48.7547 152.017 47.9532 152.23 47.1767 152.556C46.3682 152.861 45.6552 153.376 45.1104 154.047C44.668 154.739 44.3847 155.521 44.2807 156.335C44.1768 157.15 44.2548 157.978 44.5092 158.759C44.9782 160.179 45.6533 161.521 46.513 162.744C47.2758 163.852 47.8865 165.058 48.3289 166.328C48.6837 167.514 48.8029 168.757 48.6795 169.988C48.4743 172.131 47.5262 174.135 45.9995 175.652C44.831 176.785 43.3903 177.596 41.8167 178.009C40.4766 178.359 39.0805 178.44 37.709 178.247Z" fill="#455A64"/>
<path d="M24.3584 160.99C24.1945 161.236 24.0836 161.513 24.0328 161.804C23.8662 162.664 24.0175 163.555 24.4586 164.311C24.7642 164.851 25.1934 165.31 25.7109 165.652C26.3561 166.042 27.0985 166.242 27.8524 166.228C28.7686 166.208 29.6617 165.937 30.4345 165.444C31.2074 164.952 31.8304 164.256 32.2356 163.434C32.712 162.49 32.9567 161.446 32.9495 160.388C32.9192 159.252 32.6815 158.131 32.2482 157.08C31.4592 154.912 30.0065 152.794 29.9814 150.262C29.9341 149.639 30.0128 149.012 30.2129 148.42C30.413 147.828 30.7304 147.283 31.1461 146.816C32.1615 145.977 33.4662 145.572 34.7779 145.688C36.2376 145.795 37.7046 145.642 39.111 145.237C39.848 144.937 40.4707 144.41 40.8893 143.733C41.2924 143.06 41.5446 142.307 41.6282 141.527C41.7004 140.031 41.5783 138.531 41.2651 137.066C41.0408 135.691 41.1221 134.283 41.503 132.943C42.2128 130.384 43.8756 128.196 46.1492 126.827C48.3074 125.727 50.7032 125.176 53.1248 125.223C55.2769 125.228 57.416 124.889 59.4616 124.22C61.1248 123.61 62.6492 122.672 63.945 121.463C64.9374 120.546 65.7822 119.481 66.4497 118.305C67.0372 117.33 67.4405 116.255 67.6395 115.134C67.2666 116.193 66.8015 117.216 66.2494 118.192C64.6716 120.827 62.2413 122.844 59.3615 123.907C57.333 124.528 55.2209 124.832 53.0997 124.809C50.6077 124.739 48.1374 125.29 45.9113 126.413C43.5204 127.816 41.7554 130.08 40.977 132.742C40.5763 134.156 40.4865 135.639 40.714 137.091C41.0072 138.508 41.1291 139.956 41.0772 141.402C41.0476 142.09 40.8299 142.756 40.4478 143.328C40.0658 143.901 39.5341 144.357 38.9106 144.648C37.5724 145.028 36.1775 145.168 34.7904 145.061C33.3379 144.934 31.8938 145.384 30.7704 146.315C30.3117 146.837 29.9641 147.448 29.7488 148.109C29.5335 148.771 29.455 149.469 29.518 150.162C29.5734 151.463 29.884 152.741 30.4323 153.922C30.9207 155.05 31.4592 156.102 31.8725 157.155C32.2927 158.153 32.5303 159.218 32.5738 160.301C32.5909 161.289 32.3764 162.267 31.9476 163.158C31.5842 163.926 31.0173 164.58 30.3086 165.048C29.5998 165.517 28.7763 165.782 27.9276 165.815C27.2314 165.84 26.542 165.67 25.9363 165.326C25.4179 165.023 24.9865 164.592 24.684 164.073C24.245 163.375 24.0634 162.546 24.1705 161.729C24.2331 161.278 24.3959 161.002 24.3584 160.99Z" fill="#263238"/>
<path d="M129.842 166.968C130.14 167.815 130.14 168.739 129.842 169.587C129.677 170.073 129.404 170.517 129.045 170.883C128.685 171.25 128.247 171.531 127.764 171.705C127.119 171.895 126.435 171.902 125.787 171.725C125.139 171.548 124.553 171.194 124.094 170.702C123.568 170.124 123.262 169.378 123.23 168.597C123.206 167.745 123.338 166.895 123.618 166.09C124.144 164.399 125.234 162.556 125.071 160.338C124.992 159.213 124.679 158.118 124.153 157.121C123.627 156.124 122.899 155.248 122.015 154.548C121.09 153.807 120.032 153.25 118.897 152.906C117.738 152.585 116.543 152.412 115.34 152.393C114.175 152.383 113.013 152.261 111.871 152.029C110.805 151.809 109.851 151.219 109.179 150.362C108.583 149.484 108.249 148.454 108.214 147.392C108.159 146.358 108.243 145.321 108.465 144.309C109.015 142.401 109.318 140.43 109.367 138.444C109.266 136.681 108.642 134.989 107.576 133.582C106.674 132.466 105.569 131.53 104.32 130.825C103.407 130.284 102.532 129.681 101.702 129.02C101.022 128.437 100.468 127.72 100.074 126.915C100.074 126.915 100.074 126.915 100.074 127.09C100.124 127.26 100.191 127.424 100.275 127.579C100.587 128.188 101.012 128.732 101.527 129.183C102.339 129.89 103.206 130.531 104.119 131.1C105.314 131.812 106.367 132.738 107.225 133.832C108.218 135.181 108.785 136.796 108.853 138.469C108.779 140.41 108.463 142.334 107.914 144.197C107.672 145.256 107.575 146.344 107.626 147.43C107.673 148.599 108.046 149.733 108.703 150.701C109.449 151.668 110.514 152.338 111.709 152.593C112.883 152.835 114.078 152.965 115.278 152.982C116.437 152.997 117.59 153.157 118.709 153.458C119.772 153.788 120.765 154.311 121.64 154.999C122.463 155.649 123.143 156.462 123.636 157.387C124.13 158.312 124.426 159.33 124.507 160.376C124.683 162.393 123.681 164.135 123.13 165.953C122.84 166.824 122.713 167.742 122.754 168.66C122.809 169.535 123.168 170.364 123.769 171.003C124.283 171.542 124.939 171.926 125.661 172.11C126.383 172.294 127.142 172.271 127.851 172.043C128.37 171.842 128.835 171.525 129.213 171.117C129.59 170.709 129.87 170.22 130.03 169.687C130.257 169.034 130.292 168.329 130.131 167.657C130.076 167.412 129.979 167.179 129.842 166.968Z" fill="#263238"/>
<path d="M117.871 265.133V251.272C119.424 243.489 118.685 234.266 115.065 227.16C112.44 222.58 109.537 218.165 106.374 213.938L92.5984 196.03C85.0092 201.557 73.1244 197.559 62.9303 193.849C62.9303 193.849 52.9115 199.426 48.1777 204.665C43.2559 210.179 60.0875 279.169 60.0875 279.169C52.4607 294.433 42.6172 307.993 41.127 321.903L120.776 324.974L117.395 288.43L117.871 265.133Z" fill="#455A64"/>
<path d="M116.768 288.818C116.689 288.3 116.668 287.775 116.706 287.252C116.706 286.111 116.706 284.745 116.706 283.003C116.768 279.244 116.843 274.394 116.931 268.992C117.019 263.591 117.181 258.566 117.357 254.981C117.444 253.189 117.532 251.736 117.607 250.733C117.616 250.213 117.683 249.696 117.808 249.192C117.858 249.708 117.858 250.229 117.808 250.746C117.808 251.886 117.808 253.252 117.808 254.994C117.745 258.754 117.657 263.604 117.57 269.005C117.482 274.406 117.332 279.432 117.156 283.016C117.069 284.808 116.981 286.262 116.893 287.264C116.913 287.786 116.871 288.307 116.768 288.818Z" fill="#263238"/>
<path d="M153.149 301.426C153.149 301.426 160.914 301.852 165.673 304.86C170.432 307.867 178.196 312.554 181.39 318.357C182.855 321.026 178.685 321.59 176.618 320.049C174.552 318.507 171.408 315.575 169.843 315.224L168.278 314.86C169.707 318.097 171.299 321.259 173.049 324.335C174.665 326.841 176.067 331.002 171.208 331.19C171.208 331.19 167.939 335.451 164.633 332.293C164.633 332.293 162.053 336.165 157.896 330.801C157.896 330.801 155.466 333.872 154.464 332.694C153.462 331.516 150.144 329.661 149.179 325.826C147.732 321.362 146.06 316.974 144.17 312.68L153.149 301.426Z" fill="#FFBF9D"/>
<path d="M326.989 193.724C327.853 193.724 363.407 189.964 363.407 189.964C363.407 189.964 366.425 175.502 366.262 171.742C366.099 167.983 363.57 143.106 363.57 143.106L376.882 136.84C376.882 136.84 394.678 196.895 390.796 201.882C386.913 206.87 379.612 211.344 378.986 211.369C378.36 211.394 344.534 226.408 321.002 218.6C297.471 210.793 326.989 193.724 326.989 193.724Z" fill="#FFBF9D"/>
<path d="M295.828 226.145C301.063 231.346 310.08 235.669 325.133 231.91C354.889 224.465 377.193 218.124 386.06 213.362C394.926 208.6 391.47 187.32 392.221 186.355C394.463 183.448 391.996 177.207 388.802 176.229C379.698 173.472 363.856 174.562 363.054 175.389C358.383 180.302 362.641 186.267 362.641 186.267L323.405 191.418C318.581 191.192 313.747 191.499 308.99 192.333" fill="#455A64"/>
<path d="M308.991 192.333L309.93 192.132C310.557 192.02 311.483 191.857 312.711 191.706C316.261 191.259 319.843 191.108 323.418 191.255L362.642 185.992L362.454 186.43C361.165 184.533 360.532 182.267 360.65 179.976C360.757 178.791 361.144 177.649 361.778 176.643C362.096 176.137 362.456 175.659 362.855 175.214C363.012 175.098 363.184 175.005 363.368 174.938L363.819 174.825C364.119 174.75 364.407 174.725 364.695 174.662C369.555 174.102 374.457 174.001 379.335 174.362C381.897 174.518 384.442 174.87 386.95 175.414C387.576 175.552 388.202 175.74 388.853 175.903C389.521 176.116 390.133 176.476 390.644 176.956C391.64 177.903 392.399 179.07 392.861 180.365C393.358 181.661 393.534 183.058 393.374 184.438C393.26 185.155 392.99 185.839 392.585 186.443C392.473 186.568 392.485 186.906 392.473 187.232V188.235C392.56 190.929 392.685 193.674 392.61 196.431C392.63 200.345 391.991 204.234 390.719 207.935C390.066 209.79 388.944 211.443 387.463 212.735C386.696 213.335 385.854 213.832 384.958 214.214C384.132 214.653 383.255 214.991 382.454 215.392C379.022 216.858 375.578 218.062 372.185 219.152C368.791 220.242 365.459 221.295 362.166 222.26C349.066 226.019 337.119 229.065 327.175 231.559C324.8 232.187 322.392 232.685 319.962 233.05C317.784 233.354 315.584 233.471 313.387 233.401C309.856 233.325 306.374 232.568 303.13 231.17C301.096 230.272 299.199 229.091 297.495 227.661C296.894 227.176 296.333 226.643 295.816 226.07C295.816 226.07 296.392 226.621 297.582 227.561C299.308 228.939 301.212 230.077 303.243 230.945C306.466 232.276 309.912 232.986 313.399 233.038C315.573 233.09 317.748 232.956 319.899 232.636C322.312 232.255 324.704 231.745 327.062 231.108C337.081 228.601 348.928 225.518 361.99 221.683C365.259 220.718 368.59 219.691 372.009 218.563C375.428 217.435 378.822 216.244 382.216 214.803C383.042 214.415 383.906 214.076 384.72 213.638C385.557 213.269 386.343 212.798 387.062 212.234C388.461 211.018 389.518 209.459 390.131 207.71C391.365 204.057 391.978 200.224 391.947 196.368C392.022 193.624 391.947 190.904 391.809 188.197V187.17C391.809 186.994 391.809 186.819 391.809 186.631C391.799 186.531 391.799 186.43 391.809 186.33C391.837 186.253 391.87 186.177 391.909 186.104L391.972 186.004C392.324 185.49 392.555 184.903 392.648 184.287C392.795 183.013 392.627 181.722 392.159 180.528C391.739 179.331 391.044 178.249 390.131 177.369C389.687 176.953 389.157 176.641 388.578 176.455C387.952 176.292 387.325 176.116 386.712 175.966C384.237 175.429 381.725 175.081 379.198 174.926C374.37 174.556 369.518 174.649 364.708 175.201C364.42 175.201 364.132 175.277 363.856 175.352L363.456 175.439C363.369 175.474 363.285 175.516 363.205 175.565C362.828 175.976 362.488 176.421 362.191 176.893C361.595 177.815 361.233 178.869 361.139 179.964C361.03 182.117 361.619 184.249 362.817 186.042L363.067 186.43H362.629L323.381 191.443C319.826 191.263 316.262 191.363 312.723 191.744C311.471 191.869 310.557 192.007 309.93 192.095C309.304 192.182 308.991 192.333 308.991 192.333Z" fill="#263238"/>
<path d="M202.758 233.148L186.776 204.414L489.056 36.0497C492.538 34.11 496.648 33.6341 500.482 34.7268C504.315 35.8195 507.557 38.3912 509.496 41.8763L510.866 44.3401C512.804 47.8251 513.28 51.938 512.188 55.7739C511.096 59.6098 508.526 62.8545 505.044 64.7943L202.764 233.159L202.758 233.148Z" fill="#FFBF45"/>
<path d="M456.234 81.1876L419.222 14.6426C419.043 14.3205 418.929 13.9662 418.886 13.6C418.844 13.2338 418.874 12.8628 418.975 12.5083C419.076 12.1537 419.246 11.8225 419.474 11.5336C419.703 11.2447 419.987 11.0038 420.309 10.8245L437.292 1.36524C437.614 1.18596 437.968 1.07186 438.333 1.02949C438.699 0.987121 439.07 1.01729 439.424 1.11828C439.779 1.21928 440.11 1.38912 440.398 1.61811C440.687 1.8471 440.928 2.13074 441.107 2.45285L478.12 68.9978L456.234 81.1876Z" fill="#FFBF45"/>
<path d="M383.421 50.2006L410.396 98.6995C411.486 100.659 413.956 101.363 415.915 100.273L430.709 92.0324C432.667 90.9418 433.371 88.4692 432.281 86.5098L405.306 38.0109C404.216 36.0515 401.745 35.3471 399.787 36.4377L384.993 44.678C383.034 45.7686 382.331 48.2412 383.421 50.2006Z" fill="#FFBF45"/>
<path d="M407.239 47.3683L423.939 77.394L457.927 58.4634L441.227 28.4377L407.239 47.3683Z" fill="#FFBF45"/>
<path d="M484.632 38.5752C484.72 38.7255 425.396 71.9359 352.159 112.741C278.922 153.546 219.41 186.505 219.41 186.342C219.41 186.18 278.634 152.982 351.896 112.164C425.158 71.3469 484.544 38.4122 484.632 38.5752Z" fill="#263238"/>
<path d="M80.337 288.655C102.629 328.759 149.629 345.05 185.321 325.187C221.013 305.323 231.908 256.698 209.617 216.645C187.325 176.592 140.337 160.25 104.633 180.114C68.9281 199.978 58.0578 248.603 80.337 288.655ZM190.28 227.423C205.897 255.495 198.27 289.545 173.249 303.469C148.227 317.392 115.303 305.975 99.6858 277.878C84.069 249.781 91.6958 215.756 116.705 201.82C141.715 187.884 174.664 199.351 190.28 227.423Z" fill="#FFBF45"/>
<path d="M237.659 175.726L254.152 205.38C256.345 209.323 261.317 210.74 265.258 208.545L266.593 207.802C270.533 205.607 271.949 200.632 269.756 196.688L253.263 167.035C251.07 163.092 246.098 161.675 242.157 163.869L240.822 164.613C236.882 166.808 235.465 171.783 237.659 175.726Z" fill="#FFBF45"/>
<path d="M269.336 158.082L285.83 187.736C288.023 191.679 292.995 193.096 296.935 190.902L298.27 190.158C302.211 187.963 303.627 182.988 301.434 179.045L284.941 149.391C282.747 145.448 277.775 144.031 273.835 146.225L272.5 146.969C268.56 149.164 267.143 154.139 269.336 158.082Z" fill="#FFBF45"/>
<path d="M252.912 166.579C253.074 166.491 256.894 173.221 261.465 181.618C266.036 190.014 269.605 196.857 269.443 196.945C269.28 197.032 265.46 190.315 260.889 181.906C256.318 173.497 252.749 166.579 252.912 166.579Z" fill="#263238"/>
<path d="M238.372 176.918C238.535 176.831 242.267 183.26 246.725 191.255C251.183 199.251 254.652 205.83 254.502 205.918C254.352 206.006 250.607 199.577 246.199 191.644C241.791 183.711 238.221 177.006 238.372 176.918Z" fill="#263238"/>
<path d="M284.784 149.122C284.947 149.034 288.841 155.726 293.488 164.073C298.134 172.419 301.766 179.274 301.603 179.362C301.44 179.45 297.558 172.745 292.912 164.399C288.265 156.052 284.634 149.21 284.784 149.122Z" fill="#263238"/>
<path d="M269.492 158.358C269.642 158.27 273.462 164.925 277.995 173.221C282.529 181.518 286.098 188.26 285.935 188.398C285.772 188.536 281.978 181.831 277.432 173.535C272.886 165.238 269.329 158.446 269.492 158.358Z" fill="#263238"/>
<path d="M360.326 113.154C361.784 113.326 363.254 112.949 364.449 112.096C365.645 111.242 366.48 109.975 366.792 108.539C367.105 107.103 366.872 105.603 366.14 104.329C365.408 103.056 364.228 102.101 362.83 101.65C363.734 100.724 364.323 99.5377 364.515 98.2584C364.707 96.979 364.493 95.6716 363.901 94.5211C363.31 93.3707 362.372 92.4356 361.22 91.8482C360.068 91.2608 358.76 91.0508 357.483 91.248C357.43 89.9756 357.049 88.7384 356.378 87.6567C355.706 86.5751 354.766 85.6857 353.649 85.0752C352.532 84.4646 351.276 84.1536 350.004 84.1724C348.731 84.1912 347.485 84.5392 346.387 85.1825C344.955 84.0107 343.172 83.3519 341.322 83.311C339.473 83.2702 337.663 83.8495 336.18 84.9569C334.935 84.7189 333.646 84.889 332.504 85.4419C331.363 85.9949 330.43 86.9012 329.844 88.0265C329.258 89.1518 329.049 90.4362 329.25 91.6892C329.451 92.9422 330.05 94.0971 330.958 94.9826" fill="#263238"/>
<path d="M334.916 90.7969H336.169C342.483 90.8022 348.564 93.1869 353.201 97.4762C357.837 101.766 360.69 107.645 361.19 113.944C362.13 126.088 363.006 139.51 362.906 146.026C362.668 159.561 349.218 161.566 349.218 161.566L350.308 177.783L317.584 176.718L314.866 117.942C313.714 103.918 320.89 91.5739 334.916 90.7969Z" fill="#FFBF9D"/>
<path d="M349.331 161.566C343.071 161.549 336.947 159.735 331.686 156.34C331.686 156.34 336.019 166.554 349.469 165.376L349.331 161.566Z" fill="#FF9A6C"/>
<path d="M353.788 126.664C353.792 127.166 353.598 127.65 353.249 128.011C352.9 128.371 352.424 128.581 351.922 128.594C351.678 128.611 351.432 128.579 351.2 128.501C350.968 128.422 350.753 128.298 350.569 128.136C350.385 127.974 350.235 127.777 350.128 127.557C350.02 127.336 349.958 127.097 349.943 126.852C349.943 126.35 350.137 125.867 350.485 125.504C350.833 125.142 351.308 124.929 351.809 124.91C352.055 124.893 352.301 124.925 352.534 125.004C352.767 125.083 352.982 125.208 353.166 125.372C353.35 125.535 353.5 125.733 353.607 125.955C353.714 126.177 353.775 126.418 353.788 126.664Z" fill="#263238"/>
<path d="M358.271 120.573C358.033 120.824 356.567 119.746 354.514 119.746C352.46 119.746 350.919 120.774 350.694 120.523C350.468 120.273 350.832 119.959 351.495 119.471C352.394 118.853 353.461 118.529 354.551 118.543C355.628 118.539 356.677 118.881 357.544 119.521C358.17 120.009 358.383 120.473 358.271 120.573Z" fill="#263238"/>
<path d="M335.115 125.762C335.125 126.272 334.933 126.765 334.581 127.133C334.229 127.502 333.746 127.716 333.237 127.729C332.992 127.746 332.747 127.715 332.514 127.636C332.282 127.557 332.068 127.434 331.884 127.272C331.7 127.11 331.55 126.913 331.442 126.692C331.335 126.472 331.272 126.232 331.258 125.987C331.254 125.484 331.447 124.999 331.796 124.636C332.145 124.273 332.621 124.061 333.124 124.045C333.367 124.026 333.612 124.056 333.844 124.132C334.076 124.208 334.291 124.329 334.476 124.489C334.661 124.649 334.813 124.843 334.923 125.062C335.032 125.28 335.098 125.518 335.115 125.762Z" fill="#263238"/>
<path d="M337.909 120.899C337.671 121.15 336.206 120.072 334.152 120.072C332.098 120.072 330.558 121.1 330.333 120.849C330.107 120.598 330.47 120.285 331.134 119.796C332.032 119.179 333.1 118.855 334.19 118.869C335.267 118.865 336.316 119.207 337.183 119.847C337.809 120.335 338.022 120.786 337.909 120.899Z" fill="#263238"/>
<path d="M345.373 136.301C346.466 135.958 347.598 135.755 348.742 135.7C349.268 135.7 349.769 135.549 349.869 135.186C349.913 134.64 349.791 134.094 349.518 133.619L347.965 129.584C345.811 123.832 344.208 119.107 344.484 119.032C344.759 118.957 346.651 123.531 348.805 129.271C349.318 130.687 349.819 132.04 350.295 133.331C350.62 133.974 350.713 134.708 350.558 135.412C350.479 135.597 350.36 135.762 350.208 135.895C350.056 136.027 349.876 136.123 349.681 136.176C349.393 136.262 349.093 136.304 348.792 136.301C347.657 136.443 346.508 136.443 345.373 136.301Z" fill="#263238"/>
<path d="M339.723 112.929C339.448 113.455 337.682 112.929 335.49 112.803C333.299 112.678 331.47 113.092 331.27 112.54C331.182 112.277 331.571 111.813 332.36 111.387C333.377 110.884 334.507 110.651 335.641 110.711C336.765 110.75 337.858 111.088 338.809 111.688C339.523 112.177 339.849 112.691 339.723 112.929Z" fill="#263238"/>
<path d="M358.397 112.039C357.959 112.503 356.243 112.039 354.19 112.039C352.136 112.039 350.433 112.352 349.994 111.851C349.819 111.613 350.094 111.137 350.858 110.698C351.911 110.146 353.09 109.882 354.277 109.934C355.458 109.949 356.613 110.283 357.621 110.899C358.347 111.325 358.585 111.801 358.397 112.039Z" fill="#263238"/>
<path d="M359.912 107.803C359.912 107.803 356.381 99.3439 352.31 97.3638C347.389 94.9576 345.26 100.359 340.563 99.0306C335.867 97.7022 331.171 95.4088 326.362 99.0306C321.102 102.991 323.557 105.785 323.206 111.776C321.828 136.038 317.37 142.881 316.155 131.451C316.017 130.198 312.548 129.196 312.047 123.932C311.396 117.077 311.158 108.743 312.711 103.881C313.964 99.7825 316.356 96.9502 320.551 93.8548C327.188 88.9421 336.28 88.8419 342.454 89.5061C348.629 90.1703 360.501 97.2259 359.912 107.803Z" fill="#263238"/>
<path d="M317.007 131.075C316.993 130.58 316.879 130.093 316.671 129.644C316.464 129.194 316.167 128.791 315.8 128.459C315.432 128.128 315.001 127.874 314.532 127.714C314.064 127.554 313.568 127.491 313.074 127.529C310.57 127.767 307.752 129.183 307.902 134.384C308.165 143.608 317.37 141.44 317.383 141.164C317.395 140.888 317.157 134.935 317.007 131.075Z" fill="#FFBF9D"/>
<path d="M315.264 137.755C315.264 137.755 315.114 137.88 314.838 138.006C314.464 138.178 314.038 138.2 313.648 138.068C313.04 137.708 312.539 137.192 312.198 136.573C311.856 135.953 311.687 135.254 311.707 134.547C311.659 133.76 311.787 132.972 312.083 132.241C312.162 131.952 312.311 131.687 312.516 131.468C312.722 131.25 312.977 131.085 313.26 130.988C313.444 130.932 313.641 130.943 313.818 131.018C313.994 131.094 314.138 131.23 314.224 131.401C314.35 131.652 314.3 131.84 314.35 131.852C314.4 131.865 314.537 131.689 314.45 131.314C314.4 131.085 314.266 130.883 314.074 130.75C313.948 130.657 313.804 130.59 313.651 130.553C313.498 130.517 313.34 130.511 313.185 130.537C312.808 130.622 312.459 130.802 312.171 131.061C311.884 131.32 311.668 131.649 311.544 132.015C311.172 132.823 311.004 133.709 311.056 134.597C311.169 136.452 312.171 138.169 313.561 138.52C313.809 138.585 314.069 138.593 314.32 138.543C314.572 138.493 314.809 138.387 315.013 138.231C315.264 137.981 315.301 137.755 315.264 137.755Z" fill="#FF9A6C"/>
<path d="M317.244 113.205C318.372 114.124 319.71 114.749 321.139 115.022C321.857 115.134 322.591 114.983 323.205 114.596C323.82 114.209 324.274 113.612 324.483 112.916C324.596 112.277 324.483 111.525 324.859 111.036C325.234 110.548 326.299 110.635 327.063 110.723C329.743 111.011 332.886 108.054 333.575 105.447C333.923 105.947 334.448 106.295 335.044 106.421C335.64 106.547 336.261 106.44 336.781 106.124C337.633 105.603 338.387 104.937 339.01 104.156C339.373 103.659 339.851 103.257 340.402 102.984C340.954 102.712 341.563 102.576 342.179 102.59C342.827 102.814 343.5 102.961 344.182 103.028C345.435 102.928 345.986 101.512 346.174 100.309C346.361 99.1058 346.512 97.7147 347.539 97.063C348.593 96.6498 349.758 96.6187 350.832 96.9753C351.947 97.1508 353.337 96.8876 353.675 95.7973C353.721 95.5059 353.708 95.2083 353.637 94.922C353.566 94.6357 353.439 94.3665 353.262 94.1305C352.517 93.0127 351.416 92.1793 350.139 91.7653C348.862 91.3513 347.482 91.3811 346.224 91.8496C345.78 90.3073 344.889 88.9319 343.661 87.8986C342.434 86.8653 340.928 86.2209 339.333 86.0475C337.739 85.8741 336.129 86.1796 334.709 86.9249C333.289 87.6703 332.122 88.8219 331.358 90.233C330.383 89.3391 329.206 88.6944 327.928 88.354C326.65 88.0137 325.308 87.9876 324.018 88.2781C322.727 88.5686 321.526 89.1671 320.517 90.0225C319.508 90.8778 318.72 91.9648 318.221 93.1906C317.094 92.8896 315.903 92.9271 314.797 93.2984C313.69 93.6697 312.718 94.3583 311.999 95.2786C311.281 96.199 310.849 97.3103 310.758 98.4743C310.666 99.6384 310.918 100.804 311.484 101.825C310.625 102.249 309.889 102.885 309.344 103.672C308.798 104.459 308.462 105.371 308.365 106.324C308.365 108.229 310.181 110.084 312.022 109.633C311.64 110.383 311.56 111.252 311.798 112.06C312.036 112.868 312.574 113.554 313.302 113.977C314.029 114.401 314.891 114.529 315.711 114.336C316.53 114.144 317.245 113.645 317.708 112.941" fill="#263238"/>
<path d="M346.901 94.5565C346.901 94.5565 346.901 94.5565 346.901 94.732C346.901 94.9075 346.901 95.0077 346.838 95.2208C346.709 95.8462 346.48 96.4469 346.162 97.0003C345.653 97.8676 344.955 98.6087 344.121 99.1684C343.017 99.9217 341.698 100.296 340.363 100.234L340.514 100.033C340.784 100.861 340.717 101.762 340.326 102.54C339.912 103.364 339.38 104.124 338.748 104.795C338.441 105.187 338.092 105.544 337.708 105.861C337.027 106.309 336.209 106.501 335.399 106.402C334.59 106.304 333.842 105.921 333.288 105.322L333.626 105.221C333.496 106.179 333.168 107.099 332.661 107.921C332.154 108.744 331.48 109.451 330.683 109.996C329.807 110.648 328.743 110.995 327.652 110.986C326.629 110.93 325.622 110.706 324.672 110.322L324.922 110.209C324.439 111.325 323.686 112.303 322.73 113.054C322.294 113.428 321.78 113.7 321.225 113.849C320.67 113.999 320.089 114.023 319.524 113.919C318.556 113.708 317.67 113.218 316.976 112.51C316.282 111.802 315.809 110.907 315.617 109.934L315.83 110.034C314.855 110.539 313.738 110.698 312.662 110.485C311.86 110.332 311.105 109.993 310.457 109.495C310.055 109.179 309.708 108.798 309.43 108.367C309.329 108.218 309.253 108.052 309.205 107.878C309.555 108.455 310.01 108.96 310.545 109.37C311.183 109.832 311.921 110.136 312.699 110.259C313.722 110.453 314.78 110.285 315.692 109.783L315.868 109.683V109.883C316.057 110.789 316.506 111.62 317.16 112.274C317.814 112.929 318.644 113.378 319.549 113.568C320.066 113.658 320.596 113.632 321.101 113.491C321.605 113.35 322.072 113.098 322.467 112.753C323.365 112.039 324.07 111.114 324.521 110.059L324.596 109.896H324.772C325.678 110.261 326.639 110.473 327.615 110.523C328.624 110.531 329.609 110.21 330.42 109.608C331.17 109.092 331.805 108.426 332.284 107.651C332.762 106.877 333.074 106.011 333.2 105.109V104.67L333.488 105.008C333.814 105.368 334.223 105.643 334.679 105.809C335.135 105.975 335.625 106.027 336.105 105.961C336.554 105.901 336.983 105.738 337.358 105.485C337.72 105.193 338.048 104.861 338.335 104.495C338.954 103.855 339.477 103.129 339.888 102.339C340.072 101.987 340.185 101.602 340.219 101.206C340.254 100.81 340.209 100.412 340.088 100.033L340.013 99.8075H340.251C341.53 99.887 342.8 99.5483 343.87 98.8426C344.692 98.3131 345.385 97.6066 345.899 96.7748C346.361 96.1004 346.7 95.3494 346.901 94.5565Z" fill="#455A64"/>
<path d="M345.346 143.182C345.27 142.843 343.029 143.395 340.95 141.866C338.871 140.337 338.533 137.88 338.22 137.943C337.907 138.006 337.907 138.595 338.132 139.61C338.441 140.934 339.208 142.107 340.299 142.918C341.34 143.695 342.642 144.037 343.93 143.871C344.895 143.72 345.396 143.332 345.346 143.182Z" fill="#263238"/>
<path d="M414.803 493.82L423.694 524.136C423.694 524.136 457.508 525.264 459.674 530.715L401.49 550.065L385.686 503.382L414.803 493.82Z" fill="#455A64"/>
<path d="M404.881 527.607C404.379 527.964 404.027 528.494 403.89 529.095C403.754 529.696 403.844 530.327 404.142 530.866C404.479 531.381 405.001 531.747 405.6 531.89C406.198 532.032 406.829 531.939 407.361 531.63C407.893 531.25 408.266 530.686 408.407 530.048C408.548 529.409 408.448 528.74 408.125 528.171C407.717 527.669 407.131 527.344 406.489 527.265C405.847 527.185 405.199 527.357 404.681 527.745" fill="#E0E0E0"/>
<path d="M456.393 528.522C456.393 528.522 459.361 528.785 459.675 530.715L401.491 550.065L400.088 545.29L456.343 528.497" fill="#263238"/>
<path d="M424.533 523.522C424.621 523.81 423.281 524.411 422.153 525.79C421.026 527.169 420.713 528.61 420.413 528.585C420.112 528.56 419.999 526.78 421.352 525.138C422.704 523.497 424.508 523.246 424.533 523.522Z" fill="white"/>
<path d="M431.472 524.01C431.635 524.274 430.57 525.163 429.994 526.68C429.418 528.196 429.581 529.575 429.293 529.65C429.005 529.725 428.291 528.184 429.03 526.304C429.769 524.424 431.384 523.747 431.472 524.01Z" fill="white"/>
<path d="M437.37 530.164C437.132 530.314 436.268 529.023 436.481 527.231C436.694 525.439 437.808 524.361 438.009 524.562C438.209 524.762 437.658 525.815 437.508 527.344C437.357 528.873 437.645 530.013 437.37 530.164Z" fill="white"/>
<path d="M421.739 516.842C421.739 517.143 420.274 517.18 418.708 517.82C417.143 518.459 416.053 519.386 415.828 519.198C415.603 519.01 416.467 517.594 418.333 516.855C420.199 516.115 421.814 516.566 421.739 516.842Z" fill="white"/>
<path d="M279.122 494.083L266.46 523.033C266.46 523.033 291.62 545.591 289.804 551.205L232.822 528.647L250.693 482.729L279.122 494.083Z" fill="#455A64"/>
<path d="M249.819 513.596C249.206 513.548 248.597 513.727 248.107 514.099C247.618 514.471 247.282 515.01 247.164 515.614C247.094 516.226 247.26 516.841 247.627 517.335C247.995 517.828 248.537 518.163 249.143 518.271C249.793 518.319 250.439 518.126 250.956 517.728C251.474 517.331 251.827 516.757 251.948 516.115C251.948 514.862 250.808 513.433 249.581 513.609" fill="#E0E0E0"/>
<path d="M288.689 547.421C288.689 547.421 290.793 549.539 289.804 551.18L232.822 528.622L234.813 524.073L288.664 547.383" fill="#263238"/>
<path d="M267.488 523.108C267.375 523.384 265.935 522.958 264.207 523.309C262.478 523.66 261.289 524.562 261.076 524.336C260.863 524.111 261.915 522.682 264.006 522.294C266.098 521.905 267.663 522.87 267.488 523.108Z" fill="white"/>
<path d="M272.498 527.946C272.498 528.234 271.07 528.234 269.655 529.036C268.24 529.838 267.489 530.978 267.15 530.866C266.812 530.753 267.326 529.098 269.092 528.133C270.857 527.169 272.598 527.682 272.498 527.946Z" fill="white"/>
<path d="M273.075 536.442C272.8 536.442 272.963 534.863 274.328 533.623C275.693 532.382 277.183 532.282 277.208 532.557C277.233 532.833 276.106 533.334 275.042 534.375C273.977 535.415 273.364 536.53 273.075 536.442Z" fill="white"/>
<path d="M269.655 516.228C269.442 516.428 268.315 515.551 266.699 514.975C265.084 514.398 263.668 514.473 263.618 514.185C263.568 513.897 265.134 513.358 267.025 513.985C268.916 514.611 269.88 516.027 269.655 516.228Z" fill="white"/>
<path d="M300.449 335.05L280.487 416.083C280.487 416.083 244.482 476.739 238.383 507.092L271.32 520.05C271.32 520.05 295.277 461.587 302.303 450.86C305.464 446.052 309.097 441.573 313.148 437.488C315.782 434.873 317.671 431.603 318.621 428.014L333.736 370.203L300.449 335.05Z" fill="#263238"/>
<path d="M291.945 322.091C291.945 322.091 294.726 343.797 315.602 353.422L359.585 425.106C359.585 425.106 363.029 448.416 369.603 468.054C376.178 487.692 389.466 525.539 389.466 525.539L425.646 512.005L402.59 433.127L398.833 405.769L362.941 314.284L332.108 295.786L291.945 322.091Z" fill="#263238"/>
<path d="M291.945 322.091L292.609 321.64L294.6 320.312L302.415 315.149L332.045 295.661L332.146 295.598L332.246 295.661L363.104 314.121V314.196L399.071 405.594V405.656C400.261 414.303 401.576 423.565 402.828 433.014C409.09 454.319 415.727 477.115 422.59 500.6C423.701 504.385 424.803 508.145 425.896 511.879L425.984 512.168L425.696 512.268L389.516 525.803L389.203 525.915L389.102 525.602C382.841 507.418 376.779 489.91 371.056 473.305C369.616 469.157 368.201 465.046 367.023 460.936C365.846 456.825 364.782 452.74 363.817 448.704C361.914 440.634 360.386 432.751 359.184 425.106V425.206L315.452 353.497L315.527 353.56C310.238 351.085 305.54 347.504 301.751 343.058C298.974 339.794 296.695 336.137 294.989 332.205C293.933 329.778 293.094 327.261 292.484 324.686C292.271 323.833 292.146 323.169 292.071 322.718C291.995 322.267 291.983 322.041 291.983 322.041C291.983 322.041 291.983 322.267 292.121 322.706C292.258 323.144 292.334 323.808 292.571 324.673C293.218 327.215 294.081 329.698 295.151 332.092C296.879 335.984 299.166 339.602 301.939 342.832C305.742 347.232 310.438 350.769 315.715 353.209L359.785 424.843V424.906C361.037 432.525 362.54 440.396 364.444 448.454C365.408 452.477 366.46 456.55 367.65 460.648C368.839 464.746 370.242 468.831 371.682 472.979C377.43 489.584 383.479 507.092 389.766 525.264L389.353 525.076L425.533 511.541L425.333 511.929C424.247 508.195 423.145 504.435 422.027 500.65L402.29 433.052C401.037 423.602 399.71 414.341 398.533 405.694V405.769L362.703 314.284L362.803 314.397L331.995 295.862H332.183L302.553 315.261L294.663 320.349L292.634 321.665L291.945 322.091Z" fill="#455A64"/>
<path d="M311.321 167.231C311.321 167.231 300.776 175.352 295.654 184.425C289.518 195.291 288.854 211.394 288.666 236.409C288.478 259.543 291.935 265.972 290.607 274.695C287.99 291.726 286.049 348.885 286.049 348.885C286.049 348.885 319.862 335.889 326.424 330.087L333.024 324.347L375.341 338.346L366.8 286.312L360.939 221.458L353.425 187.057L352.173 173.56L315.83 158.947L311.321 167.231Z" fill="#455A64"/>
<path d="M350.807 172.845C351.245 172.933 349.768 175.903 347.163 180.264L347.05 180.44L346.85 180.365C343.18 178.936 338.321 177.144 333.011 175.201C327.025 173.021 321.615 170.991 317.745 169.411C315.804 168.622 314.251 167.958 313.187 167.469C312.621 167.25 312.077 166.982 311.559 166.667C312.153 166.8 312.732 166.993 313.287 167.243L317.908 168.985L333.237 174.587C338.547 176.53 343.393 178.347 347.013 179.901L346.712 180.001C349.442 175.728 351.058 172.908 350.807 172.845Z" fill="#263238"/>
<path d="M394.539 145.826C394.539 145.826 391.859 141.653 389.329 137.805C386.799 133.958 382.967 132.065 382.354 130.06C381.74 128.055 378.371 119.12 377.833 116.901C377.365 114.753 377.146 112.558 377.181 110.36C377.181 110.36 379.949 109.182 381.277 113.142C382.078 115.523 384.633 123.606 385.184 124.007C385.735 124.408 386.436 123.819 386.436 123.819C385.299 120.793 384.316 117.71 383.493 114.583C383.368 113.117 383.881 103.392 383.881 103.392C384.568 103.253 385.282 103.365 385.893 103.708C386.504 104.051 386.972 104.601 387.213 105.259C388.528 107.765 388.578 114.032 388.578 114.032L390.569 121.025L389.868 114.107L390.87 101.387C391.843 101.525 392.749 101.961 393.466 102.633C394.183 103.306 394.676 104.184 394.877 105.146C395.716 108.58 394.602 113.367 395.165 114.382C395.729 115.398 396.342 121.538 396.342 121.538C396.342 121.538 397.031 106.625 398.622 106.199C400.212 105.773 401.515 107.352 401.289 110.36C401.064 113.367 401.001 119.734 401.828 122.541C402.654 125.348 411.133 136.326 410.444 141.139C410.021 144.046 409.758 146.975 409.655 149.911H395.128L394.539 145.826Z" fill="#FFBF9D"/>
<path d="M343.581 183.385C344.395 183.698 379.098 192.295 379.098 192.295C379.098 192.295 386.85 179.763 387.989 176.129C389.129 172.494 395.228 148.282 395.228 148.282L409.893 146.904C409.893 146.904 406.136 209.427 400.826 212.798C395.516 216.169 387.05 217.874 386.499 217.686C385.948 217.498 348.991 220.067 329.517 204.715C310.043 189.363 343.581 183.385 343.581 183.385Z" fill="#FFBF9D"/>
<g opacity="0.3">
<path opacity="0.3" d="M318.71 216.482C322.435 220.701 327.404 223.624 332.899 224.829C342.104 226.859 361.703 230.456 361.703 230.456L360.752 220.831L318.172 216.269" fill="black"/>
</g>
<path d="M303.256 203.248C306.412 209.916 313.425 217.034 328.841 218.651C359.361 221.809 382.467 223.488 392.448 221.984C402.429 220.48 406.399 199.338 407.476 198.687C410.582 196.732 410.382 190.014 407.702 188.009C400.087 182.307 384.821 177.984 383.794 178.447C377.72 181.467 379.699 188.536 379.699 188.536L341.002 179.989C336.544 178.133 331.894 176.78 327.138 175.953" fill="#455A64"/>
<path d="M327.138 175.953C327.138 175.953 327.464 175.953 328.09 176.079C328.716 176.204 329.656 176.354 330.858 176.617C334.348 177.41 337.766 178.491 341.077 179.851L379.749 188.272L379.424 188.623C378.851 186.402 379.027 184.054 379.925 181.944C380.419 180.863 381.167 179.917 382.104 179.187C382.579 178.816 383.086 178.489 383.619 178.209C383.802 178.155 383.992 178.125 384.183 178.121H384.646C384.959 178.121 385.235 178.222 385.535 178.272C390.294 179.398 394.936 180.971 399.399 182.971C401.751 183.997 404.024 185.195 406.199 186.556C406.737 186.906 407.276 187.295 407.814 187.671C408.371 188.094 408.825 188.639 409.142 189.262C409.753 190.493 410.07 191.849 410.069 193.223C410.101 194.613 409.791 195.99 409.167 197.233C408.821 197.874 408.333 198.427 407.739 198.85C407.589 198.925 407.489 199.251 407.364 199.551L407.038 200.491C406.211 202.998 405.385 205.68 404.383 208.261C403.071 211.963 401.149 215.42 398.697 218.488C397.809 219.653 396.675 220.61 395.377 221.29C394.079 221.97 392.647 222.357 391.183 222.423C390.244 222.561 389.305 222.586 388.378 222.661C384.621 222.886 381.014 222.836 377.445 222.736C373.876 222.636 370.382 222.448 366.988 222.235C353.375 221.357 341.165 220.117 330.92 219.052C328.473 218.837 326.04 218.486 323.632 217.999C321.495 217.541 319.4 216.904 317.37 216.094C314.081 214.815 311.067 212.918 308.491 210.505C306.883 208.965 305.5 207.205 304.383 205.279C303.983 204.618 303.636 203.926 303.344 203.211C303.344 203.211 303.694 203.925 304.496 205.216C305.653 207.094 307.056 208.81 308.666 210.317C311.24 212.678 314.241 214.524 317.508 215.756C319.541 216.541 321.635 217.157 323.77 217.598C326.171 218.059 328.596 218.389 331.033 218.588C341.277 219.603 353.488 220.794 367.076 221.646C370.482 221.846 373.964 222.022 377.52 222.109C381.077 222.197 384.721 222.247 388.403 222.034C389.317 221.947 390.257 221.921 391.171 221.784C392.083 221.735 392.985 221.563 393.851 221.27C395.581 220.602 397.109 219.497 398.284 218.062C400.683 215.053 402.562 211.664 403.845 208.036C404.846 205.529 405.66 202.885 406.487 200.303L406.838 199.326C406.838 199.175 406.963 199.013 407.038 198.837C407.084 198.74 407.138 198.648 407.201 198.561C407.249 198.501 407.303 198.446 407.364 198.398L407.451 198.323C407.971 197.963 408.4 197.487 408.704 196.932C409.289 195.768 409.573 194.475 409.53 193.173C409.534 191.905 409.247 190.653 408.691 189.513C408.418 188.975 408.028 188.504 407.551 188.135C407.013 187.771 406.5 187.383 405.961 187.044C403.817 185.693 401.573 184.508 399.248 183.498C394.835 181.507 390.244 179.937 385.535 178.811C385.247 178.811 384.959 178.685 384.684 178.66H384.27H383.995C383.502 178.924 383.032 179.23 382.592 179.575C381.72 180.234 381.019 181.094 380.551 182.082C379.721 184.064 379.55 186.261 380.062 188.348L380.175 188.786L379.737 188.686L341.127 180.039C337.846 178.658 334.463 177.535 331.008 176.68C329.756 176.392 328.892 176.191 328.265 176.066C327.639 175.941 327.138 175.953 327.138 175.953Z" fill="#263238"/>
<path d="M392.449 200.629C391.559 200.408 390.712 200.04 389.944 199.539C388.024 198.467 386.255 197.144 384.684 195.604C383.105 194.07 381.725 192.344 380.576 190.466C380.054 189.696 379.653 188.851 379.387 187.959C381.103 190.491 383.026 192.876 385.135 195.09C387.403 197.151 389.85 199.005 392.449 200.629Z" fill="#263238"/>
<path d="M119.987 303.845C119.987 303.845 127.752 304.258 132.511 307.278C137.27 310.299 145.034 314.961 148.228 320.776C149.693 323.445 145.522 324.009 143.469 322.455C141.415 320.901 138.246 317.993 136.681 317.63L135.115 317.279C136.543 320.513 138.135 323.671 139.887 326.741C141.502 329.247 142.905 333.408 138.058 333.609C138.058 333.609 134.777 337.869 131.471 334.711C131.471 334.711 128.891 338.571 124.734 333.22C124.734 333.22 122.317 336.278 121.302 335.112C120.288 333.947 116.982 332.08 116.017 328.245C114.578 323.778 112.906 319.39 111.008 315.098L119.987 303.845Z" fill="#FFBF9D"/>
<path d="M53.9135 201.669C49.9334 202.952 46.4983 205.533 44.1577 209.001C41.1771 213.588 40.2629 221.533 41.1145 227.448C42.9179 239.918 48.6286 260.959 51.8471 274.469C52.9492 279.131 55.2159 287.477 61.8659 291.901L109.317 320.375L122.004 301.576L78.7475 266.298L70.194 217.949L53.9135 201.669Z" fill="#455A64"/>
<path d="M45.7109 249.192C45.776 249.349 45.8263 249.513 45.8612 249.68L46.262 251.147C46.6001 252.475 47.076 254.38 47.7022 256.824C48.9545 261.837 50.7328 268.955 52.9495 277.815C54.2364 282.641 56.9624 286.96 60.7641 290.197C62.9359 291.937 65.2576 293.48 67.7021 294.809L75.3289 299.421L109.505 320.074L109.067 320.174L113.638 313.394L121.753 301.326L121.816 301.764L78.9482 266.436H78.8731V266.348C76.0428 254.43 73.9889 244.667 72.6865 237.875C72.0478 234.479 71.5969 231.834 71.3089 230.03C71.1837 229.153 71.0835 228.463 71.0083 227.974C70.9332 227.486 70.9207 227.273 70.9207 227.273C70.9887 227.499 71.043 227.729 71.0835 227.962C71.1711 228.451 71.2964 229.127 71.4466 230.005C71.7848 231.797 72.2732 234.441 72.9745 237.825C74.3396 244.592 76.4686 254.33 79.3615 266.235L79.2738 266.097L122.217 301.263L122.442 301.451L122.279 301.689L114.164 313.757L109.593 320.537L109.43 320.788L109.155 320.638L75.0284 299.922L67.4141 295.298C64.9534 293.955 62.6151 292.399 60.426 290.648C56.5585 287.333 53.8003 282.911 52.5237 277.978C50.3822 269.093 48.6665 261.912 47.5143 256.936C46.9508 254.43 46.4999 252.563 46.1868 251.234L45.8236 249.693C45.7744 249.529 45.7367 249.361 45.7109 249.192Z" fill="#263238"/>
<path d="M46.4863 208.349C46.7809 208.155 47.1074 208.015 47.4506 207.935C48.3597 207.654 49.2892 207.445 50.2308 207.309C53.372 206.824 56.5862 207.259 59.4857 208.562C62.288 210.024 64.6683 212.182 66.3986 214.828C66.9233 215.628 67.3441 216.491 67.651 217.397C67.7854 217.72 67.8618 218.063 67.8764 218.412C67.3352 217.262 66.7116 216.152 66.0104 215.091C64.2278 212.622 61.8954 210.601 59.1976 209.189C56.3997 207.948 53.3227 207.472 50.2809 207.81C47.939 207.998 46.5239 208.462 46.4863 208.349Z" fill="#263238"/>
</svg>
