<svg width="18" height="20" viewBox="0 0 18 20" fill="none" xmlns="http://www.w3.org/2000/svg">
<path d="M17.9424 6.50781C18.0654 6.84375 17.961 7.22266 17.7075 7.46875L16.093 9.00781C16.134 9.33203 16.1564 9.66406 16.1564 10C16.1564 10.3359 16.134 10.668 16.093 10.9922L17.7075 12.5312C17.961 12.7773 18.0654 13.1562 17.9424 13.4922C17.7783 13.957 17.5807 14.4063 17.357 14.832L17.1817 15.1484C16.9357 15.5781 16.6597 15.9844 16.3577 16.3711C16.134 16.6484 15.7723 16.7461 15.4442 16.6367L13.3673 15.9414C12.8676 16.3438 12.2822 16.6797 11.7267 16.9375L11.2606 19.168C11.186 19.5195 10.925 19.7695 10.582 19.8633C10.0674 19.9531 9.53793 20 8.96371 20C8.4566 20 7.92713 19.9531 7.41257 19.8633C7.06953 19.7695 6.80852 19.5195 6.73395 19.168L6.26786 16.9375C5.67873 16.6797 5.12688 16.3438 4.62724 15.9414L2.55185 16.6367C2.22223 16.7461 1.85868 16.6484 1.63794 16.3711C1.33555 15.9844 1.05962 15.5781 0.813529 15.1484L0.639026 14.832C0.412695 14.4063 0.21582 13.957 0.0506386 13.4922C-0.0701711 13.1562 0.0316223 12.7773 0.287411 12.5312L1.90044 10.9922C1.85943 10.668 1.83817 10.3359 1.83817 10C1.83817 9.66406 1.85943 9.33203 1.90044 9.00781L0.287411 7.46875C0.0316223 7.22266 -0.0701711 6.84766 0.0506386 6.50781C0.21582 6.04297 0.413068 5.59375 0.639026 5.16797L0.813156 4.85156C1.05962 4.42188 1.33555 4.01562 1.63794 3.63086C1.85868 3.35156 2.22223 3.25469 2.55185 3.36484L4.62724 4.05859C5.12688 3.65469 5.67873 3.31875 6.26786 3.06367L6.73395 0.833203C6.80852 0.478516 7.06953 0.196875 7.41257 0.137109C7.92713 0.0469141 8.4566 0 8.99727 0C9.53793 0 10.0674 0.0469141 10.582 0.137109C10.925 0.196875 11.186 0.478516 11.2606 0.833203L11.7267 3.06367C12.2822 3.31875 12.8676 3.65469 13.3673 4.05859L15.4442 3.36484C15.7723 3.25469 16.134 3.35156 16.3577 3.63086C16.6597 4.01562 16.9357 4.42188 17.1817 4.85156L17.357 5.16797C17.5807 5.59375 17.7783 6.04297 17.9424 6.50781ZM8.99727 13.125C10.6453 13.125 11.9802 11.7266 11.9802 9.96484C11.9802 8.27344 10.6453 6.83984 8.99727 6.83984C7.34918 6.83984 6.01431 8.27344 6.01431 9.96484C6.01431 11.7266 7.34918 13.125 8.99727 13.125Z" fill="#1C1C1C"/>
</svg>
