<svg width="22" height="22" viewBox="0 0 22 22" fill="none" xmlns="http://www.w3.org/2000/svg">
<path d="M19.5429 19.3302L14.8671 14.6549C15.9304 13.0765 16.455 11.1045 16.1741 9.00315C15.6952 5.42892 12.7655 2.52024 9.18743 2.06728C3.86752 1.39419 -0.605903 5.86715 0.0672984 11.1865C0.520422 14.7658 3.42979 17.6975 7.00478 18.174C9.10634 18.4548 11.079 17.9305 12.6571 16.8672L17.3329 21.5424C17.943 22.1525 18.9325 22.1525 19.5426 21.5424C20.1523 20.9316 20.1523 19.9395 19.5429 19.3302ZM3.08979 10.1241C3.08979 7.36738 5.33275 5.12465 8.08978 5.12465C10.8468 5.12465 13.0898 7.36738 13.0898 10.1241C13.0898 12.8809 10.8468 15.1236 8.08978 15.1236C5.33275 15.1236 3.08979 12.8816 3.08979 10.1241Z" fill="#1C1C1C"/>
</svg>
