<svg width="202" height="197" viewBox="0 0 202 197" fill="none" xmlns="http://www.w3.org/2000/svg">
<path d="M0 0H202V197H0V0Z" fill="#D9D9D9"/>
<path d="M101 100.5C119.937 100.5 135.286 85.1651 135.286 66.25C135.286 47.3349 119.937 32 101 32C82.0625 32 66.7143 47.3349 66.7143 66.25C66.7143 85.1651 82.0625 100.5 101 100.5ZM114.58 113.344H87.4196C61.7884 113.344 41 134.108 41 159.715C41 164.836 45.1571 168.992 50.2839 168.992H151.721C156.848 169 161 164.853 161 159.715C161 134.108 140.214 113.344 114.58 113.344Z" fill="#FDF1E1"/>
</svg>
