<svg width="22" height="20" viewBox="0 0 22 20" fill="none" xmlns="http://www.w3.org/2000/svg">
<path d="M10.8611 0.647656C10.8611 0.295117 11.1047 0 11.5 0C16.4394 0 20.4444 3.91797 20.4444 8.75C20.4444 9.10156 20.141 9.375 19.7816 9.375H10.8611V0.647656ZM0 10.625C0 5.88672 3.59774 1.96641 8.22969 1.33789C8.63299 1.28867 8.94444 1.57656 8.94444 1.93789V11.25L15.1936 17.3633C15.4611 17.625 15.4411 18.0547 15.1337 18.2695C13.5684 19.3594 11.6517 20 9.58333 20C4.29253 20 0 15.8047 0 10.625ZM21.0194 11.25C21.3868 11.25 21.6823 11.5547 21.6344 11.9141C21.3269 14.0977 20.2488 16.0391 18.6835 17.4727C18.4439 17.6602 18.0686 17.6758 17.837 17.4492L11.5 11.25H21.0194Z" fill="black"/>
</svg>
