<svg width="20" height="18" viewBox="0 0 20 18" fill="none" xmlns="http://www.w3.org/2000/svg">
<path d="M18.75 0.25H5C4.30859 0.25 3.75 0.809766 3.75 1.5V14.625C3.75 14.9688 3.47031 15.25 3.125 15.25C2.77969 15.25 2.5 14.9688 2.5 14.625V2.75H1.25C0.559766 2.75 0 3.30859 0 4V15.25C0 16.6309 1.11914 17.75 2.5 17.75H17.5C18.8809 17.75 20 16.6309 20 15.25V1.5C20 0.809766 19.4414 0.25 18.75 0.25ZM10.625 15.25H6.875C6.53125 15.25 6.25 14.9688 6.25 14.625C6.25 14.2812 6.53125 14 6.875 14H10.625C10.9702 14 11.25 14.2798 11.25 14.625C11.25 14.9688 10.9688 15.25 10.625 15.25ZM10.625 11.5H6.875C6.53125 11.5 6.25 11.2188 6.25 10.875C6.25 10.5312 6.53125 10.25 6.875 10.25H10.625C10.9688 10.25 11.25 10.5312 11.25 10.875C11.25 11.2188 10.9688 11.5 10.625 11.5ZM16.875 15.25H13.125C12.7798 15.25 12.5 14.9702 12.5 14.625C12.5 14.2798 12.7798 14 13.125 14H16.875C17.2202 14 17.5 14.2798 17.5 14.625C17.5 14.9688 17.2188 15.25 16.875 15.25ZM16.875 11.5H13.125C12.7812 11.5 12.5 11.2188 12.5 10.875C12.5 10.5312 12.7812 10.25 13.125 10.25H16.875C17.2188 10.25 17.5 10.5312 17.5 10.875C17.5 11.2188 17.2188 11.5 16.875 11.5ZM17.5 7.125C17.5 7.46875 17.2188 7.75 16.875 7.75H6.875C6.53125 7.75 6.25 7.46875 6.25 7.125V3.375C6.25 3.03125 6.53125 2.75 6.875 2.75H16.875C17.2188 2.75 17.5 3.03125 17.5 3.375V7.125Z" fill="#1C1C1C"/>
</svg>
