<svg width="20" height="20" viewBox="0 0 20 20" fill="none" xmlns="http://www.w3.org/2000/svg">
<g clip-path="url(#clip0_380_23)">
<path d="M9.50797 0.100938C9.82047 -0.0338086 10.1798 -0.0338086 10.4923 0.100938L19.2423 3.85105C19.7892 4.08582 20.0939 4.67176 19.9728 5.24988C19.8556 5.83191 19.3439 6.21473 18.715 6.24988V6.56238C18.715 7.08191 18.3322 7.49988 17.7775 7.49988H2.1525C1.66968 7.49988 1.215 7.08191 1.215 6.56238V6.24988C0.656794 6.21473 0.144997 5.83191 0.0256529 5.24988C-0.0936752 4.67176 0.212223 4.08582 0.757575 3.85105L9.50797 0.100938ZM10.0002 4.99988C10.6916 4.99988 11.2502 4.44129 11.2502 3.74988C11.2502 3.05965 10.6916 2.49988 10.0002 2.49988C9.30875 2.49988 8.75015 3.05965 8.75015 3.74988C8.75015 4.44129 9.30875 4.99988 10.0002 4.99988ZM4.965 16.2499H6.5275V8.74988H9.0275V16.2499H10.9377V8.74988H13.4377V16.2499H15.0002V8.74988H17.5002V16.4179C17.5236 16.4296 17.547 16.41 17.5705 16.4608L19.4455 17.7108C19.9025 18.0155 20.1056 18.5858 19.9455 19.1132C19.7853 19.6405 19.3009 19.9999 18.7502 19.9999H1.215C0.699372 19.9999 0.213356 19.6405 0.0537467 19.1132C-0.105902 18.5858 0.0983951 18.0155 0.556794 17.7108L2.43179 16.4608C2.45406 16.41 2.47711 16.4296 2.465 16.4179V8.74988H4.965V16.2499Z" fill="#1C1C1C"/>
</g>
<defs>
<clipPath id="clip0_380_23">
<rect width="20" height="20" fill="white"/>
</clipPath>
</defs>
</svg>
