<svg width="23" height="20" viewBox="0 0 23 20" fill="none" xmlns="http://www.w3.org/2000/svg">
<path d="M22.992 9.98047C22.992 10.6836 22.3931 11.2344 21.7142 11.2344H20.4365L20.4644 17.4883C20.4644 17.5977 20.4564 17.6992 20.4444 17.8047V18.4375C20.4444 19.3008 19.7297 20 18.8472 20H18.2083C18.1644 20 18.1205 19.9648 18.0766 19.9961C18.0207 19.9648 17.9648 20 17.9089 20H15.6528C14.7703 20 14.0556 19.3008 14.0556 18.4375V15C14.0556 14.3086 13.4845 13.75 12.7778 13.75H10.2222C9.51545 13.75 8.94444 14.3086 8.94444 15V18.4375C8.94444 19.3008 8.22969 20 7.34722 20H5.1151C5.05521 20 4.99531 19.9961 4.93542 19.9922C4.8875 19.9961 4.83958 20 4.79167 20H4.15278C3.27071 20 2.55556 19.3008 2.55556 18.4375V14.0625C2.55556 14.0273 2.55675 13.9883 2.55915 13.9531V11.2344H1.27977C0.559826 11.2344 0 10.6836 0 9.98047C0 9.62891 0.119951 9.31641 0.399705 9.04297L10.6375 0.313125C10.917 0.0391406 11.2365 0 11.516 0C11.7955 0 12.1149 0.0782812 12.3585 0.273984L22.5528 9.04297C22.8722 9.31641 23.0359 9.62891 22.992 9.98047Z" fill="#1C1C1C"/>
</svg>
